<?xml version="1.0" encoding="UTF-8" standalone="no"?>
<svg
   xmlns:dc="http://purl.org/dc/elements/1.1/"
   xmlns:cc="http://creativecommons.org/ns#"
   xmlns:rdf="http://www.w3.org/1999/02/22-rdf-syntax-ns#"
   xmlns:svg="http://www.w3.org/2000/svg"
   xmlns="http://www.w3.org/2000/svg"
   xmlns:xlink="http://www.w3.org/1999/xlink"
   xmlns:sodipodi="http://sodipodi.sourceforge.net/DTD/sodipodi-0.dtd"
   xmlns:inkscape="http://www.inkscape.org/namespaces/inkscape"
   inkscape:version="1.0.2 (e86c870879, 2021-01-15, custom)"
   id="svg8"
   version="1.1"
   viewBox="0 0 210 297"
   height="1122.5197"
   width="793.70081"
   sodipodi:docname="qdcrypticons.svg">
  <defs
     id="defs2">
    <inkscape:perspective
       sodipodi:type="inkscape:persp3d"
       inkscape:vp_x="0 : 148.5 : 1"
       inkscape:vp_y="0 : 1000 : 0"
       inkscape:vp_z="210 : 148.5 : 1"
       inkscape:persp3d-origin="105 : 99 : 1"
       id="perspective950" />
    <linearGradient
       inkscape:collect="always"
       id="linearGradient1344">
      <stop
         style="stop-color:#ffd42a;stop-opacity:1"
         offset="0"
         id="stop1338" />
      <stop
         style="stop-color:#ff2a2a;stop-opacity:1"
         offset="1"
         id="stop1342" />
    </linearGradient>
    <linearGradient
       inkscape:collect="always"
       id="linearGradient1330">
      <stop
         style="stop-color:#0055d4;stop-opacity:1"
         offset="0"
         id="stop1326" />
      <stop
         style="stop-color:#55d400;stop-opacity:1"
         offset="1"
         id="stop1328" />
    </linearGradient>
    <linearGradient
       inkscape:collect="always"
       id="linearGradient1319">
      <stop
         style="stop-color:#4682b4;stop-opacity:1"
         offset="0"
         id="stop1315" />
      <stop
         style="stop-color:#4682b4;stop-opacity:0"
         offset="0.34945616"
         id="stop1323" />
      <stop
         style="stop-color:#000000;stop-opacity:1"
         offset="1"
         id="stop1317" />
    </linearGradient>
    <radialGradient
       inkscape:collect="always"
       xlink:href="#linearGradient1319"
       id="radialGradient1321"
       cx="396.84961"
       cy="561.25977"
       fx="396.84961"
       fy="561.25977"
       r="256"
       gradientUnits="userSpaceOnUse"
       gradientTransform="matrix(0.26458333,0,0,0.26458333,0,3.4111179e-6)" />
    <linearGradient
       inkscape:collect="always"
       xlink:href="#linearGradient1330"
       id="linearGradient1332"
       x1="314.70901"
       y1="667.92328"
       x2="483.22717"
       y2="400.45816"
       gradientUnits="userSpaceOnUse" />
    <linearGradient
       inkscape:collect="always"
       xlink:href="#linearGradient1344"
       id="linearGradient1336"
       x1="235.60191"
       y1="764.90649"
       x2="652.84961"
       y2="305.25977"
       gradientUnits="userSpaceOnUse" />
  </defs>
  <sodipodi:namedview
     inkscape:pagecheckerboard="true"
     units="px"
     showgrid="false"
     inkscape:document-rotation="0"
     inkscape:current-layer="layer5"
     inkscape:document-units="px"
     inkscape:cy="1311.3973"
     inkscape:cx="-436.50506"
     inkscape:zoom="0.20768335"
     inkscape:pageshadow="2"
     inkscape:pageopacity="0"
     borderopacity="1.0"
     bordercolor="#666666"
     pagecolor="#bfbfbf"
     id="base"
     inkscape:window-width="1920"
     inkscape:window-height="1057"
     inkscape:window-x="-8"
     inkscape:window-y="-8"
     inkscape:window-maximized="1"
     inkscape:object-nodes="true" />
  <metadata
     id="metadata5">
    <rdf:RDF>
      <cc:Work
         rdf:about="">
        <dc:format>image/svg+xml</dc:format>
        <dc:type
           rdf:resource="http://purl.org/dc/dcmitype/StillImage" />
        <dc:title />
      </cc:Work>
    </rdf:RDF>
  </metadata>
  <g
     inkscape:groupmode="layer"
     id="layer6"
     inkscape:label="bg"
     style="display:inline"
     sodipodi:insensitive="true">
    <rect
       style="fill:#ab37c8;fill-opacity:1;stroke-width:5.29169;stroke-linecap:round;stroke-linejoin:round;paint-order:stroke fill markers;stop-color:#000000"
       id="rect835"
       width="135.46667"
       height="135.46667"
       x="47.937351"
       y="100.37888"
       inkscape:export-xdpi="15"
       inkscape:export-ydpi="15"
       inkscape:export-filename="E:\Open Source\Visual Studio\QDCrypt\QDCrypt\Resources\clear.png" />
    <rect
       style="fill:#ff5599;fill-opacity:1;stroke-width:5.29169;stroke-linecap:round;stroke-linejoin:round;paint-order:stroke fill markers;stop-color:#000000"
       id="rect874"
       width="135.46667"
       height="135.46667"
       x="-129.86264"
       y="100.37888"
       inkscape:export-filename="E:\Open Source\Visual Studio\QDCrypt\QDCrypt\Resources\about.png"
       inkscape:export-xdpi="15"
       inkscape:export-ydpi="15" />
    <rect
       style="fill:#ff7f2a;fill-opacity:1;stroke-width:5.29169;stroke-linecap:round;stroke-linejoin:round;paint-order:stroke fill markers;stop-color:#000000"
       id="rect876"
       width="135.46667"
       height="135.46667"
       x="47.937355"
       y="-77.42112"
       inkscape:export-xdpi="15"
       inkscape:export-ydpi="15"
       inkscape:export-filename="E:\Open Source\Visual Studio\QDCrypt\QDCrypt\Resources\decrypt.png" />
    <rect
       style="fill:#2ca02c;fill-opacity:1;stroke-width:5.29169;stroke-linecap:round;stroke-linejoin:round;paint-order:stroke fill markers;stop-color:#000000"
       id="rect878"
       width="135.46667"
       height="135.46667"
       x="-129.86264"
       y="-77.42112"
       inkscape:export-xdpi="15"
       inkscape:export-ydpi="15" />
    <rect
       style="fill:#ab37c8;fill-opacity:1;stroke-width:5.29169;stroke-linecap:round;stroke-linejoin:round;paint-order:stroke fill markers;stop-color:#000000"
       id="rect1170"
       width="135.46667"
       height="135.46667"
       x="386.60403"
       y="100.37888"
       inkscape:export-xdpi="15"
       inkscape:export-ydpi="15"
       inkscape:export-filename="E:\Open Source\Visual Studio\QDCrypt\QDCrypt\Resources\clear.png" />
    <rect
       style="fill:#ff5599;fill-opacity:1;stroke-width:5.29169;stroke-linecap:round;stroke-linejoin:round;paint-order:stroke fill markers;stop-color:#000000"
       id="rect1172"
       width="135.46667"
       height="135.46667"
       x="208.80397"
       y="100.37888"
       inkscape:export-filename="E:\Open Source\Visual Studio\QDCrypt\QDCrypt\Resources\about.png"
       inkscape:export-xdpi="15"
       inkscape:export-ydpi="15" />
    <rect
       style="fill:#ff7f2a;fill-opacity:1;stroke-width:5.29169;stroke-linecap:round;stroke-linejoin:round;paint-order:stroke fill markers;stop-color:#000000"
       id="rect1174"
       width="135.46667"
       height="135.46667"
       x="386.60406"
       y="-77.42112"
       inkscape:export-xdpi="15"
       inkscape:export-ydpi="15"
       inkscape:export-filename="E:\Open Source\Visual Studio\QDCrypt\QDCrypt\Resources\decrypt.png" />
    <rect
       style="fill:#2ca02c;fill-opacity:1;stroke-width:5.29169;stroke-linecap:round;stroke-linejoin:round;paint-order:stroke fill markers;stop-color:#000000"
       id="rect1176"
       width="135.46667"
       height="135.46667"
       x="208.80397"
       y="-77.42112"
       inkscape:export-xdpi="15"
       inkscape:export-ydpi="15" />
    <rect
       style="fill:#ffcc00;fill-opacity:1;stroke-width:5.29169;stroke-linecap:round;stroke-linejoin:round;paint-order:stroke fill markers;stop-color:#000000"
       id="rect988"
       width="169.33333"
       height="135.46667"
       x="-341.52933"
       y="100.37888"
       inkscape:export-xdpi="4.5"
       inkscape:export-ydpi="4.5"
       inkscape:export-filename="E:\Open Source\Visual Studio\QDCrypt\QDCrypt\Resources\show.png" />
    <rect
       style="fill:#ffcc00;fill-opacity:1;stroke-width:5.29169;stroke-linecap:round;stroke-linejoin:round;paint-order:stroke fill markers;stop-color:#000000"
       id="rect1004"
       width="169.33333"
       height="135.46667"
       x="-544.72949"
       y="100.37888"
       inkscape:export-xdpi="4.5"
       inkscape:export-ydpi="4.5"
       inkscape:export-filename="E:\Open Source\Visual Studio\QDCrypt\QDCrypt\Resources\show.png" />
    <rect
       style="fill:#ffcc00;fill-opacity:1;stroke-width:5.29169;stroke-linecap:round;stroke-linejoin:round;paint-order:stroke fill markers;stop-color:#000000"
       id="rect1042"
       width="169.33333"
       height="135.46667"
       x="-341.52933"
       y="-77.42112"
       inkscape:export-xdpi="4.5"
       inkscape:export-ydpi="4.5"
       inkscape:export-filename="E:\Open Source\Visual Studio\QDCrypt\QDCrypt\Resources\show.png" />
    <rect
       style="fill:#ffcc00;fill-opacity:1;stroke-width:5.29169;stroke-linecap:round;stroke-linejoin:round;paint-order:stroke fill markers;stop-color:#000000"
       id="rect1044"
       width="169.33333"
       height="135.46667"
       x="-544.72949"
       y="-77.42112"
       inkscape:export-xdpi="4.5"
       inkscape:export-ydpi="4.5"
       inkscape:export-filename="E:\Open Source\Visual Studio\QDCrypt\QDCrypt\Resources\show.png" />
  </g>
  <g
     id="layer1"
     inkscape:groupmode="layer"
     inkscape:label="Clear"
     style="display:inline"
     sodipodi:insensitive="true">
    <g
       id="g1068"
       transform="matrix(0.88525716,0,0,0.88525716,10.643134,18.803357)"
       style="stroke-width:1.12961">
      <rect
         style="fill:#333333;fill-opacity:1;stroke-width:5.97756;stroke-linecap:round;stroke-linejoin:round;paint-order:stroke fill markers;stop-color:#000000"
         id="rect868"
         width="55.004066"
         height="7.8577237"
         x="78.203064"
         y="194.9464" />
      <g
         id="g939"
         transform="matrix(0.63639322,0.63639322,-0.63639322,0.63639322,139.0652,-30.279788)"
         style="stroke-width:1.25514">
        <path
           id="rect917"
           style="fill:#333333;fill-opacity:1;stroke-width:25.1027;stroke-linecap:round;stroke-linejoin:round;paint-order:stroke fill markers;stop-color:#000000"
           d="M 536.91797,506.54102 428.07812,615.38086 v 65.16406 46.07813 h 46.07813 90.16797 l 63.7539,-63.75391 v -65.16797 z"
           transform="scale(0.26458333)" />
        <path
           id="path928"
           style="fill:#333333;fill-opacity:1;stroke-width:25.1027;stroke-linecap:round;stroke-linejoin:round;paint-order:stroke fill markers;stop-color:#000000"
           d="m 428.07812,376.62305 v 238.75781 l 108.83985,-108.83984 91.16015,91.16015 V 376.62305 Z"
           transform="scale(0.26458333)" />
        <rect
           style="fill:#ffffff;fill-opacity:1;stroke-width:6.64175;stroke-linecap:round;stroke-linejoin:round;paint-order:stroke fill markers;stop-color:#000000"
           id="rect919"
           width="52.916668"
           height="46.302082"
           x="113.26257"
           y="99.648399" />
      </g>
      <rect
         style="fill:#333333;fill-opacity:1;stroke-width:5.97756;stroke-linecap:round;stroke-linejoin:round;paint-order:stroke fill markers;stop-color:#000000"
         id="rect949"
         width="40.163342"
         height="7.8577237"
         x="55.87648"
         y="179.23094" />
      <rect
         style="fill:#333333;fill-opacity:1;stroke-width:5.97756;stroke-linecap:round;stroke-linejoin:round;paint-order:stroke fill markers;stop-color:#000000"
         id="rect957"
         width="26.552235"
         height="7.8577237"
         x="55.87648"
         y="163.51549" />
    </g>
    <g
       id="g1116"
       transform="translate(-2.9700398,220.13338)">
      <rect
         style="fill:#333333;fill-opacity:1;stroke-width:5.29167;stroke-linecap:round;stroke-linejoin:round;paint-order:stroke fill markers;stop-color:#000000"
         id="rect1102"
         width="55.004066"
         height="7.8577237"
         x="78.203064"
         y="194.9464" />
      <g
         id="g1110"
         transform="matrix(0.63639322,0.63639322,-0.63639322,0.63639322,139.0652,-30.279788)"
         style="stroke-width:1.11112">
        <path
           id="path1104"
           style="fill:#333333;fill-opacity:1;stroke-width:22.2223;stroke-linecap:round;stroke-linejoin:round;paint-order:stroke fill markers;stop-color:#000000"
           d="M 536.91797,506.54102 428.07812,615.38086 v 65.16406 46.07813 h 46.07813 90.16797 l 63.7539,-63.75391 v -65.16797 z"
           transform="scale(0.26458333)" />
        <path
           id="path1106"
           style="fill:#333333;fill-opacity:1;stroke-width:22.2223;stroke-linecap:round;stroke-linejoin:round;paint-order:stroke fill markers;stop-color:#000000"
           d="m 428.07812,376.62305 v 238.75781 l 108.83985,-108.83984 91.16015,91.16015 V 376.62305 Z"
           transform="scale(0.26458333)" />
        <rect
           style="fill:#ffffff;fill-opacity:1;stroke-width:5.87966;stroke-linecap:round;stroke-linejoin:round;paint-order:stroke fill markers;stop-color:#000000"
           id="rect1108"
           width="52.916668"
           height="46.302082"
           x="113.26257"
           y="99.648399" />
      </g>
      <rect
         style="fill:#333333;fill-opacity:1;stroke-width:5.29167;stroke-linecap:round;stroke-linejoin:round;paint-order:stroke fill markers;stop-color:#000000"
         id="rect1112"
         width="40.163342"
         height="7.8577237"
         x="55.87648"
         y="179.23094" />
      <rect
         style="fill:#333333;fill-opacity:1;stroke-width:5.29167;stroke-linecap:round;stroke-linejoin:round;paint-order:stroke fill markers;stop-color:#000000"
         id="rect1114"
         width="26.552235"
         height="7.8577237"
         x="55.87648"
         y="163.51549" />
    </g>
    <rect
       style="fill:#ffffff;fill-opacity:1;stroke-width:5.29168;stroke-linecap:round;stroke-linejoin:round;paint-order:stroke fill markers;stop-color:#000000"
       id="rect1178"
       width="48.692745"
       height="6.9561062"
       x="418.53973"
       y="191.38104" />
    <path
       id="path1180"
       style="fill:#ffffff;fill-opacity:1;stroke-width:5.29167;stroke-linecap:round;stroke-linejoin:round;paint-order:stroke fill markers;stop-color:#000000"
       d="m 476.94631,147.53465 h -32.44706 l -9.71328,9.71327 -6.86834,6.86835 6.86834,6.86835 13.44033,13.44032 h 19.00615 l 9.71386,-9.71385 z" />
    <path
       id="path1182"
       style="fill:#ffffff;fill-opacity:1;stroke-width:5.29167;stroke-linecap:round;stroke-linejoin:round;paint-order:stroke fill markers;stop-color:#000000"
       d="m 480.08819,111.94571 -35.58894,35.58894 h 32.44706 v 27.17644 l 32.95363,-32.95363 z" />
    <rect
       style="fill:#333333;fill-opacity:1;stroke-width:5.29167;stroke-linecap:round;stroke-linejoin:round;paint-order:stroke fill markers;stop-color:#000000"
       id="rect1184"
       width="42.160183"
       height="36.890156"
       x="418.63138"
       y="-260.31586"
       transform="rotate(45)" />
    <rect
       style="fill:#ffffff;fill-opacity:1;stroke-width:5.29168;stroke-linecap:round;stroke-linejoin:round;paint-order:stroke fill markers;stop-color:#000000"
       id="rect1188"
       width="35.554886"
       height="6.9561062"
       x="398.77496"
       y="177.46883" />
    <rect
       style="fill:#ffffff;fill-opacity:1;stroke-width:5.29168;stroke-linecap:round;stroke-linejoin:round;paint-order:stroke fill markers;stop-color:#000000"
       id="rect1190"
       width="23.505556"
       height="6.9561062"
       x="398.77496"
       y="163.55661" />
  </g>
  <g
     inkscape:groupmode="layer"
     id="layer3"
     inkscape:label="Encrypt"
     style="display:inline"
     sodipodi:insensitive="true">
    <path
       id="rect1126"
       style="fill:#333333;fill-opacity:1;stroke:none;stroke-width:5.29167;stroke-linecap:round;stroke-linejoin:round;paint-order:stroke fill markers;stop-color:#000000"
       d="M -74.697014,-41.867035 H -49.5616 l 15.754185,64.358505 h -56.64378 z"
       sodipodi:nodetypes="ccccc" />
    <circle
       style="fill:#333333;fill-opacity:1;stroke:none;stroke-width:5.29167;stroke-linecap:round;stroke-linejoin:round;paint-order:stroke fill markers;stop-color:#000000"
       id="path1124"
       cx="-62.129303"
       cy="-39.255753"
       r="29.104168" />
    <path
       id="path1165"
       style="color:#000000;font-style:normal;font-variant:normal;font-weight:normal;font-stretch:normal;font-size:medium;line-height:normal;font-family:sans-serif;font-variant-ligatures:normal;font-variant-position:normal;font-variant-caps:normal;font-variant-numeric:normal;font-variant-alternates:normal;font-variant-east-asian:normal;font-feature-settings:normal;font-variation-settings:normal;text-indent:0;text-align:start;text-decoration:none;text-decoration-line:none;text-decoration-style:solid;text-decoration-color:#000000;letter-spacing:normal;word-spacing:normal;text-transform:none;writing-mode:lr-tb;direction:ltr;text-orientation:mixed;dominant-baseline:auto;baseline-shift:baseline;text-anchor:start;white-space:normal;shape-padding:0;shape-margin:0;inline-size:0;clip-rule:nonzero;display:inline;overflow:visible;visibility:visible;isolation:auto;mix-blend-mode:normal;color-interpolation:sRGB;color-interpolation-filters:linearRGB;solid-color:#000000;solid-opacity:1;vector-effect:none;fill:#ffffff;fill-opacity:1;fill-rule:nonzero;stroke:none;stroke-width:27.7812;stroke-linecap:square;stroke-linejoin:miter;stroke-miterlimit:4;stroke-dasharray:none;stroke-dashoffset:0;stroke-opacity:1;paint-order:normal;color-rendering:auto;image-rendering:auto;shape-rendering:auto;text-rendering:auto;enable-background:accumulate;stop-color:#000000"
       d="m -62.128995,-54.468988 c -8.566737,0 -15.214564,6.646277 -15.214564,15.213014 1e-5,4.51471 1.98975,8.773187 5.452887,11.669577 l 6.638877,5.553147 -7.498257,30.6348103 h 21.242114 l -7.499797,-30.6348103 6.638347,-5.553147 c 3.463117,-2.89651 5.453557,-7.154817 5.453417,-11.669577 0,-8.566737 -6.646287,-15.213014 -15.213024,-15.213014 z" />
    <path
       id="path1194"
       style="fill:#ffffff;fill-opacity:1;stroke:none;stroke-width:5.29167;stroke-linecap:round;stroke-linejoin:round;paint-order:stroke fill markers;stop-color:#000000"
       d="m 263.96972,-41.867035 h 25.13542 l 15.7542,64.358505 h -56.64381 z"
       sodipodi:nodetypes="ccccc" />
    <circle
       style="fill:#ffffff;fill-opacity:1;stroke:none;stroke-width:5.29167;stroke-linecap:round;stroke-linejoin:round;paint-order:stroke fill markers;stop-color:#000000"
       id="circle1196"
       cx="276.53729"
       cy="-39.255753"
       r="29.104168" />
    <path
       id="path1198"
       style="color:#000000;font-style:normal;font-variant:normal;font-weight:normal;font-stretch:normal;font-size:medium;line-height:normal;font-family:sans-serif;font-variant-ligatures:normal;font-variant-position:normal;font-variant-caps:normal;font-variant-numeric:normal;font-variant-alternates:normal;font-variant-east-asian:normal;font-feature-settings:normal;font-variation-settings:normal;text-indent:0;text-align:start;text-decoration:none;text-decoration-line:none;text-decoration-style:solid;text-decoration-color:#000000;letter-spacing:normal;word-spacing:normal;text-transform:none;writing-mode:lr-tb;direction:ltr;text-orientation:mixed;dominant-baseline:auto;baseline-shift:baseline;text-anchor:start;white-space:normal;shape-padding:0;shape-margin:0;inline-size:0;clip-rule:nonzero;display:inline;overflow:visible;visibility:visible;isolation:auto;mix-blend-mode:normal;color-interpolation:sRGB;color-interpolation-filters:linearRGB;solid-color:#000000;solid-opacity:1;vector-effect:none;fill:#333333;fill-opacity:1;fill-rule:nonzero;stroke:none;stroke-width:27.7812;stroke-linecap:square;stroke-linejoin:miter;stroke-miterlimit:4;stroke-dasharray:none;stroke-dashoffset:0;stroke-opacity:1;paint-order:normal;color-rendering:auto;image-rendering:auto;shape-rendering:auto;text-rendering:auto;enable-background:accumulate;stop-color:#000000"
       d="m 276.53774,-54.468988 c -8.56674,0 -15.21456,6.646277 -15.21456,15.213014 1e-5,4.51471 1.98975,8.773187 5.45288,11.669577 l 6.63888,5.553147 -7.49826,30.6348103 h 21.24213 l -7.4998,-30.6348103 6.63835,-5.553147 c 3.46311,-2.89651 5.45355,-7.154817 5.45341,-11.669577 0,-8.566737 -6.64629,-15.213014 -15.21303,-15.213014 z" />
  </g>
  <g
     inkscape:groupmode="layer"
     id="layer4"
     inkscape:label="Decrypt"
     sodipodi:insensitive="true"
     style="display:inline">
    <g
       id="g1086"
       transform="matrix(0.77385385,-0.5407463,0.5407463,0.77385385,39.65728,62.851363)"
       style="stroke-width:1.05925"
       inkscape:export-filename="E:\Open Source\Visual Studio\QDCrypt\QDCrypt\Resources\decrypt.png"
       inkscape:export-xdpi="15"
       inkscape:export-ydpi="15">
      <circle
         style="fill:#333333;fill-opacity:1;stroke:none;stroke-width:5.6052;stroke-linecap:round;stroke-linejoin:round;paint-order:stroke fill markers;stop-color:#000000"
         id="path1027"
         cx="79.876259"
         cy="-32.803337"
         r="27.78125" />
      <rect
         style="fill:#333333;fill-opacity:1;stroke:none;stroke-width:5.60521;stroke-linecap:round;stroke-linejoin:round;paint-order:stroke fill markers;stop-color:#000000"
         id="rect1029"
         width="85.761086"
         height="18.520834"
         x="96.386795"
         y="-41.052704" />
      <rect
         style="fill:#333333;fill-opacity:1;stroke:none;stroke-width:5.6052;stroke-linecap:round;stroke-linejoin:round;paint-order:stroke fill markers;stop-color:#000000"
         id="rect1031"
         width="22.202187"
         height="13.008683"
         x="159.94569"
         y="-26.280136" />
      <rect
         style="fill:#333333;fill-opacity:1;stroke:none;stroke-width:5.6052;stroke-linecap:round;stroke-linejoin:round;paint-order:stroke fill markers;stop-color:#000000"
         id="rect1041"
         width="22.202187"
         height="12.700001"
         x="137.74352"
         y="-50.313122" />
      <rect
         style="fill:#333333;fill-opacity:1;stroke:none;stroke-width:5.6052;stroke-linecap:round;stroke-linejoin:round;paint-order:stroke fill markers;stop-color:#000000"
         id="rect1043"
         width="22.202187"
         height="12.700001"
         x="115.54134"
         y="-25.971455" />
      <circle
         style="fill:#ffffff;fill-opacity:1;stroke:none;stroke-width:5.60519;stroke-linecap:round;stroke-linejoin:round;paint-order:stroke fill markers;stop-color:#000000"
         id="circle1045"
         cx="79.876259"
         cy="-32.803337"
         r="9.8028784" />
    </g>
    <g
       id="g1100"
       transform="rotate(-30,-143.35158,-96.556841)">
      <circle
         style="fill:#333333;fill-opacity:1;stroke:none;stroke-width:5.29167;stroke-linecap:round;stroke-linejoin:round;paint-order:stroke fill markers;stop-color:#000000"
         id="circle1088"
         cx="79.876259"
         cy="-32.803337"
         r="27.78125" />
      <rect
         style="fill:#333333;fill-opacity:1;stroke:none;stroke-width:5.29168;stroke-linecap:round;stroke-linejoin:round;paint-order:stroke fill markers;stop-color:#000000"
         id="rect1090"
         width="85.761086"
         height="18.520834"
         x="96.386795"
         y="-41.052704" />
      <rect
         style="fill:#333333;fill-opacity:1;stroke:none;stroke-width:5.29167;stroke-linecap:round;stroke-linejoin:round;paint-order:stroke fill markers;stop-color:#000000"
         id="rect1092"
         width="22.202187"
         height="13.008683"
         x="159.94569"
         y="-26.280136" />
      <rect
         style="fill:#333333;fill-opacity:1;stroke:none;stroke-width:5.29167;stroke-linecap:round;stroke-linejoin:round;paint-order:stroke fill markers;stop-color:#000000"
         id="rect1094"
         width="22.202187"
         height="12.700001"
         x="137.74352"
         y="-50.313122" />
      <rect
         style="fill:#333333;fill-opacity:1;stroke:none;stroke-width:5.29167;stroke-linecap:round;stroke-linejoin:round;paint-order:stroke fill markers;stop-color:#000000"
         id="rect1096"
         width="22.202187"
         height="12.700001"
         x="115.54134"
         y="-25.971455" />
      <circle
         style="fill:#ffffff;fill-opacity:1;stroke:none;stroke-width:5.29166;stroke-linecap:round;stroke-linejoin:round;paint-order:stroke fill markers;stop-color:#000000"
         id="circle1098"
         cx="79.876259"
         cy="-32.803337"
         r="9.8028784" />
    </g>
    <g
       id="g1233"
       style="fill:#ffffff;fill-opacity:1">
      <circle
         style="fill:#ffffff;fill-opacity:1;stroke:none;stroke-width:5.29167;stroke-linecap:round;stroke-linejoin:round;paint-order:stroke fill markers;stop-color:#000000"
         id="circle1200"
         cx="349.52206"
         cy="237.24979"
         r="26.22727"
         transform="rotate(-34.944717)" />
      <rect
         style="fill:#ffffff;fill-opacity:1;stroke:none;stroke-width:5.29168;stroke-linecap:round;stroke-linejoin:round;paint-order:stroke fill markers;stop-color:#000000"
         id="rect1202"
         width="80.963928"
         height="17.484848"
         x="365.10907"
         y="229.46187"
         transform="rotate(-34.944717)" />
      <rect
         style="fill:#ffffff;fill-opacity:1;stroke:none;stroke-width:5.29167;stroke-linecap:round;stroke-linejoin:round;paint-order:stroke fill markers;stop-color:#000000"
         id="rect1204"
         width="20.960279"
         height="12.281026"
         x="425.11273"
         y="243.40811"
         transform="rotate(-34.944717)" />
      <rect
         style="fill:#ffffff;fill-opacity:1;stroke:none;stroke-width:5.29167;stroke-linecap:round;stroke-linejoin:round;paint-order:stroke fill markers;stop-color:#000000"
         id="rect1206"
         width="20.960279"
         height="11.989611"
         x="404.15244"
         y="220.71944"
         transform="rotate(-34.944717)" />
      <rect
         style="fill:#ffffff;fill-opacity:1;stroke:none;stroke-width:5.29167;stroke-linecap:round;stroke-linejoin:round;paint-order:stroke fill markers;stop-color:#000000"
         id="rect1208"
         width="20.960279"
         height="11.989611"
         x="383.19217"
         y="243.69952"
         transform="rotate(-34.944717)" />
    </g>
    <circle
       style="fill:#333333;fill-opacity:1;stroke:none;stroke-width:5.29166;stroke-linecap:round;stroke-linejoin:round;paint-order:stroke fill markers;stop-color:#000000"
       id="circle1210"
       cx="349.52206"
       cy="237.24979"
       r="9.2545424"
       transform="rotate(-34.944717)" />
  </g>
  <g
     inkscape:groupmode="layer"
     id="layer2"
     inkscape:label="About"
     sodipodi:insensitive="true"
     style="display:inline">
    <ellipse
       style="fill:#333333;fill-opacity:1;stroke-width:5.29167;stroke-linecap:round;stroke-linejoin:round;paint-order:stroke fill markers;stop-color:#000000"
       id="path884"
       cx="-61.308491"
       cy="151.16283"
       rx="53.529503"
       ry="41.33094" />
    <path
       id="rect886"
       style="fill:#333333;fill-opacity:1;stroke-width:5.29167;stroke-linecap:round;stroke-linejoin:round;paint-order:stroke fill markers;stop-color:#000000"
       d="m -83.861438,168.75398 19.54462,5.60643 21.58074,15.44214 -77.496332,14.73917 z"
       sodipodi:nodetypes="ccccc" />
    <text
       xml:space="preserve"
       style="font-style:normal;font-variant:normal;font-weight:normal;font-stretch:normal;font-size:83.3076px;line-height:1.25;font-family:Courgette;-inkscape-font-specification:Courgette;fill:#ffffff;fill-opacity:1;stroke:none;stroke-width:0.264583"
       x="-75.891396"
       y="178.1163"
       id="text895"><tspan
         sodipodi:role="line"
         id="tspan893"
         x="-75.891396"
         y="178.1163"
         style="font-style:normal;font-variant:normal;font-weight:normal;font-stretch:normal;font-family:Courgette;-inkscape-font-specification:Courgette;fill:#ffffff;stroke-width:0.264583">i</tspan></text>
    <ellipse
       style="fill:#ffffff;fill-opacity:1;stroke-width:5.29167;stroke-linecap:round;stroke-linejoin:round;paint-order:stroke fill markers;stop-color:#000000"
       id="ellipse1214"
       cx="277.35809"
       cy="151.16283"
       rx="53.529503"
       ry="41.33094" />
    <path
       id="path1216"
       style="fill:#ffffff;fill-opacity:1;stroke-width:5.29167;stroke-linecap:round;stroke-linejoin:round;paint-order:stroke fill markers;stop-color:#000000"
       d="m 254.80529,168.75398 19.54463,5.60643 21.58075,15.44214 -77.49636,14.73917 z"
       sodipodi:nodetypes="ccccc" />
    <text
       xml:space="preserve"
       style="font-style:normal;font-variant:normal;font-weight:normal;font-stretch:normal;font-size:83.3076px;line-height:1.25;font-family:Courgette;-inkscape-font-specification:Courgette;fill:#333333;fill-opacity:1;stroke:none;stroke-width:0.264583"
       x="262.77515"
       y="178.1163"
       id="text1220"><tspan
         sodipodi:role="line"
         id="tspan1218"
         x="262.77515"
         y="178.1163"
         style="font-style:normal;font-variant:normal;font-weight:normal;font-stretch:normal;font-family:Courgette;-inkscape-font-specification:Courgette;fill:#333333;fill-opacity:1;stroke-width:0.264583">i</tspan></text>
  </g>
  <g
     inkscape:groupmode="layer"
     id="layer5"
     inkscape:label="Logo"
     style="display:none"
     sodipodi:insensitive="true">
    <path
       id="path1334"
       style="opacity:1;fill:url(#linearGradient1336);fill-opacity:1;stroke:none;stroke-width:105;stroke-linecap:square;stroke-linejoin:miter;stroke-miterlimit:4;stroke-dasharray:none;stroke-opacity:1;paint-order:normal;stop-color:#000000"
       d="m 140.84961,305.25977 v 210.57421 75.0625 15.78711 a 260.00002,260.00002 0 0 0 0.12695,0.71094 260.00002,260.00002 0 0 0 0.24414,1.33399 260.00002,260.00002 0 0 0 0.25,1.33203 260.00002,260.00002 0 0 0 0.25782,1.33203 260.00002,260.00002 0 0 0 0.26562,1.33008 260.00002,260.00002 0 0 0 0.27148,1.32812 260.00002,260.00002 0 0 0 0.2793,1.32617 260.00002,260.00002 0 0 0 0.28516,1.32617 260.00002,260.00002 0 0 0 0.29297,1.32422 260.00002,260.00002 0 0 0 0.29883,1.32227 260.00002,260.00002 0 0 0 0.30664,1.32031 260.00002,260.00002 0 0 0 0.31445,1.31836 260.00002,260.00002 0 0 0 0.32031,1.31836 260.00002,260.00002 0 0 0 0.32617,1.31641 260.00002,260.00002 0 0 0 0.33399,1.31445 260.00002,260.00002 0 0 0 0.33984,1.3125 260.00002,260.00002 0 0 0 0.34766,1.31055 260.00002,260.00002 0 0 0 0.35547,1.30859 260.00002,260.00002 0 0 0 0.36132,1.30664 260.00002,260.00002 0 0 0 0.36719,1.30469 260.00002,260.00002 0 0 0 0.375,1.30273 260.00002,260.00002 0 0 0 0.38086,1.30078 260.00002,260.00002 0 0 0 0.38867,1.29883 260.00002,260.00002 0 0 0 0.39649,1.29883 260.00002,260.00002 0 0 0 0.40039,1.29492 260.00002,260.00002 0 0 0 0.41015,1.29102 260.00002,260.00002 0 0 0 0.41407,1.29101 260.00002,260.00002 0 0 0 0.42187,1.28907 260.00002,260.00002 0 0 0 0.42969,1.28711 260.00002,260.00002 0 0 0 0.43555,1.2832 260.00002,260.00002 0 0 0 0.4414,1.28125 260.00002,260.00002 0 0 0 0.44922,1.2793 260.00002,260.00002 0 0 0 0.45508,1.27734 260.00002,260.00002 0 0 0 0.46289,1.27539 260.00002,260.00002 0 0 0 0.46875,1.27148 260.00002,260.00002 0 0 0 0.47656,1.26954 260.00002,260.00002 0 0 0 0.48047,1.26757 260.00002,260.00002 0 0 0 0.49024,1.26563 260.00002,260.00002 0 0 0 0.49414,1.26172 260.00002,260.00002 0 0 0 0.50195,1.25976 260.00002,260.00002 0 0 0 0.50976,1.25782 260.00002,260.00002 0 0 0 0.51368,1.2539 260.00002,260.00002 0 0 0 0.52148,1.25195 260.00002,260.00002 0 0 0 0.5293,1.24805 260.00002,260.00002 0 0 0 0.5332,1.2461 260.00002,260.00002 0 0 0 0.54102,1.24414 260.00002,260.00002 0 0 0 0.54882,1.24023 260.00002,260.00002 0 0 0 0.55274,1.23633 260.00002,260.00002 0 0 0 0.56055,1.23437 260.00002,260.00002 0 0 0 0.5664,1.23243 260.00002,260.00002 0 0 0 0.57422,1.22851 260.00002,260.00002 0 0 0 0.58008,1.22656 260.00002,260.00002 0 0 0 0.58594,1.22266 260.00002,260.00002 0 0 0 0.59179,1.21875 260.00002,260.00002 0 0 0 0.59961,1.2168 260.00002,260.00002 0 0 0 0.60547,1.21289 260.00002,260.00002 0 0 0 0.61133,1.21094 260.00002,260.00002 0 0 0 0.61719,1.20703 260.00002,260.00002 0 0 0 0.62304,1.20312 260.00002,260.00002 0 0 0 0.63086,1.20117 260.00002,260.00002 0 0 0 0.63672,1.19727 260.00002,260.00002 0 0 0 0.64258,1.19336 260.00002,260.00002 0 0 0 0.64844,1.1914 260.00002,260.00002 0 0 0 0.65625,1.1875 260.00002,260.00002 0 0 0 0.66015,1.1836 260.00002,260.00002 0 0 0 0.66797,1.17969 260.00002,260.00002 0 0 0 0.67383,1.17578 260.00002,260.00002 0 0 0 0.67969,1.17382 260.00002,260.00002 0 0 0 0.68555,1.16993 260.00002,260.00002 0 0 0 0.69336,1.16601 260.00002,260.00002 0 0 0 0.69726,1.16211 260.00002,260.00002 0 0 0 0.70508,1.15821 260.00002,260.00002 0 0 0 0.70898,1.15624 260.00002,260.00002 0 0 0 0.7168,1.1504 260.00002,260.00002 0 0 0 0.72266,1.14843 260.00002,260.00002 0 0 0 0.72851,1.14258 260.00002,260.00002 0 0 0 0.73242,1.14063 260.00002,260.00002 0 0 0 0.74024,1.13672 260.00002,260.00002 0 0 0 0.74609,1.13085 260.00002,260.00002 0 0 0 0.75196,1.12891 260.00002,260.00002 0 0 0 0.75781,1.125 260.00002,260.00002 0 0 0 0.76367,1.11914 260.00002,260.00002 0 0 0 0.76953,1.11719 260.00002,260.00002 0 0 0 0.77539,1.11328 260.00002,260.00002 0 0 0 0.78125,1.10742 260.00002,260.00002 0 0 0 0.78711,1.10547 260.00002,260.00002 0 0 0 0.79102,1.09961 260.00002,260.00002 0 0 0 0.79882,1.0957 260.00002,260.00002 0 0 0 0.80469,1.0918 260.00002,260.00002 0 0 0 0.8086,1.08789 260.00002,260.00002 0 0 0 0.8164,1.08398 260.00002,260.00002 0 0 0 0.82031,1.07813 260.00002,260.00002 0 0 0 0.82618,1.07422 260.00002,260.00002 0 0 0 0.83203,1.07031 260.00002,260.00002 0 0 0 0.83789,1.06641 260.00002,260.00002 0 0 0 0.84375,1.0625 260.00002,260.00002 0 0 0 0.84961,1.05664 260.00002,260.00002 0 0 0 0.85351,1.05273 260.00002,260.00002 0 0 0 0.85938,1.04883 260.00002,260.00002 0 0 0 0.86523,1.04492 260.00002,260.00002 0 0 0 0.8711,1.03907 260.00002,260.00002 0 0 0 0.87695,1.03515 260.00002,260.00002 0 0 0 0.88086,1.0293 260.00002,260.00002 0 0 0 0.88672,1.02539 260.00002,260.00002 0 0 0 0.89258,1.02148 260.00002,260.00002 0 0 0 0.89648,1.01758 260.00002,260.00002 0 0 0 0.90234,1.01172 260.00002,260.00002 0 0 0 0.90821,1.00586 260.00002,260.00002 0 0 0 0.91406,1.00195 260.00002,260.00002 0 0 0 0.91797,0.99805 260.00002,260.00002 0 0 0 0.92383,0.99219 260.00002,260.00002 0 0 0 0.92968,0.98828 260.00002,260.00002 0 0 0 0.9336,0.98242 260.00002,260.00002 0 0 0 0.93945,0.97852 260.00002,260.00002 0 0 0 0.94336,0.97265 260.00002,260.00002 0 0 0 0.94922,0.96875 260.00002,260.00002 0 0 0 0.95508,0.96289 260.00002,260.00002 0 0 0 0.95898,0.95899 260.00002,260.00002 0 0 0 0.96485,0.95312 260.00002,260.00002 0 0 0 0.96874,0.94727 260.00002,260.00002 0 0 0 0.97461,0.94336 260.00002,260.00002 0 0 0 0.97852,0.9375 260.00002,260.00002 0 0 0 0.98437,0.93359 260.00002,260.00002 0 0 0 0.98829,0.92773 260.00002,260.00002 0 0 0 0.99414,0.92188 260.00002,260.00002 0 0 0 0.99804,0.91797 260.00002,260.00002 0 0 0 1.00196,0.91211 260.00002,260.00002 0 0 0 1.00976,0.9082 260.00002,260.00002 0 0 0 1.01172,0.90039 260.00002,260.00002 0 0 0 1.01758,0.89649 260.00002,260.00002 0 0 0 1.02148,0.89062 260.00002,260.00002 0 0 0 1.02735,0.88672 260.00002,260.00002 0 0 0 1.03125,0.88086 260.00002,260.00002 0 0 0 1.03515,0.875 260.00002,260.00002 0 0 0 1.04102,0.86914 260.00002,260.00002 0 0 0 1.04492,0.86328 260.00002,260.00002 0 0 0 1.04883,0.85938 260.00002,260.00002 0 0 0 1.05469,0.85351 260.00002,260.00002 0 0 0 1.05664,0.84766 260.00002,260.00002 0 0 0 1.06445,0.84179 260.00002,260.00002 0 0 0 1.06641,0.83594 260.00002,260.00002 0 0 0 1.07031,0.83203 260.00002,260.00002 0 0 0 1.07617,0.82422 260.00002,260.00002 0 0 0 1.08008,0.82031 260.00002,260.00002 0 0 0 1.08398,0.81446 260.00002,260.00002 0 0 0 1.08985,0.80859 260.00002,260.00002 0 0 0 1.09179,0.80274 260.00002,260.00002 0 0 0 1.09766,0.79687 260.00002,260.00002 0 0 0 1.09961,0.79102 260.00002,260.00002 0 0 0 1.10547,0.78515 260.00002,260.00002 0 0 0 1.10937,0.78125 260.00002,260.00002 0 0 0 1.11329,0.77344 260.00002,260.00002 0 0 0 1.11718,0.76758 260.00002,260.00002 0 0 0 1.1211,0.76367 260.00002,260.00002 0 0 0 1.125,0.75586 260.00002,260.00002 0 0 0 1.13086,0.75 260.00002,260.00002 0 0 0 1.13281,0.74609 260.00002,260.00002 0 0 0 1.13672,0.73828 260.00002,260.00002 0 0 0 1.14062,0.73243 260.00002,260.00002 0 0 0 1.14453,0.72656 260.00002,260.00002 0 0 0 1.14844,0.7207 260.00002,260.00002 0 0 0 1.15234,0.71485 260.00002,260.00002 0 0 0 1.1543,0.70898 260.00002,260.00002 0 0 0 1.16016,0.70313 260.00002,260.00002 0 0 0 1.16406,0.69726 260.00002,260.00002 0 0 0 1.16602,0.69141 260.00002,260.00002 0 0 0 1.16992,0.68359 260.00002,260.00002 0 0 0 1.17383,0.67969 260.00002,260.00002 0 0 0 1.17773,0.67187 260.00002,260.00002 0 0 0 1.18164,0.66602 260.00002,260.00002 0 0 0 1.18359,0.66016 260.00002,260.00002 0 0 0 1.1875,0.65429 260.00002,260.00002 0 0 0 1.19141,0.64649 260.00002,260.00002 0 0 0 1.19531,0.64257 260.00002,260.00002 0 0 0 1.19727,0.63477 260.00002,260.00002 0 0 0 1.20117,0.62891 260.00002,260.00002 0 0 0 1.20508,0.62304 260.00002,260.00002 0 0 0 1.20703,0.61719 260.00002,260.00002 0 0 0 1.21094,0.60938 260.00002,260.00002 0 0 0 1.21484,0.60351 260.00002,260.00002 0 0 0 1.2168,0.59766 260.00002,260.00002 0 0 0 1.2207,0.5918 260.00002,260.00002 0 0 0 1.22266,0.58398 260.00002,260.00002 0 0 0 1.22656,0.57812 260.00002,260.00002 0 0 0 1.22852,0.57227 260.00002,260.00002 0 0 0 1.23242,0.56641 260.00002,260.00002 0 0 0 1.23633,0.55859 260.00002,260.00002 0 0 0 1.23828,0.55273 260.00002,260.00002 0 0 0 1.24023,0.54688 260.00002,260.00002 0 0 0 1.24414,0.53906 260.00002,260.00002 0 0 0 1.2461,0.5332 260.00002,260.00002 0 0 0 1.25,0.52735 260.00002,260.00002 0 0 0 1.25195,0.51953 260.00002,260.00002 0 0 0 1.25586,0.51367 260.00002,260.00002 0 0 0 1.25586,0.50586 260.00002,260.00002 0 0 0 1.26172,0.50195 260.00002,260.00002 0 0 0 1.26171,0.49414 260.00002,260.00002 0 0 0 1.26563,0.48633 260.00002,260.00002 0 0 0 1.26758,0.48047 260.00002,260.00002 0 0 0 1.26953,0.47461 260.00002,260.00002 0 0 0 1.27344,0.4668 260.00002,260.00002 0 0 0 1.27539,0.46094 260.00002,260.00002 0 0 0 1.27734,0.45507 260.00002,260.00002 0 0 0 1.2793,0.44727 260.00002,260.00002 0 0 0 1.2832,0.44141 260.00002,260.00002 0 0 0 1.28516,0.43359 260.00002,260.00002 0 0 0 1.28515,0.42773 260.00002,260.00002 0 0 0 1.28907,0.41993 260.00002,260.00002 0 0 0 1.29101,0.41406 260.00002,260.00002 0 0 0 1.29492,0.4082 260.00002,260.00002 0 0 0 1.29493,0.40039 260.00002,260.00002 0 0 0 1.29687,0.39453 260.00002,260.00002 0 0 0 1.30078,0.38672 260.00002,260.00002 0 0 0 1.30078,0.37891 260.00002,260.00002 0 0 0 1.30274,0.375 260.00002,260.00002 0 0 0 1.30664,0.36523 260.00002,260.00002 0 0 0 1.30664,0.35938 260.00002,260.00002 0 0 0 1.30859,0.35351 260.00002,260.00002 0 0 0 1.31055,0.34571 260.00002,260.00002 0 0 0 1.31445,0.33984 260.00002,260.00002 0 0 0 1.31446,0.33203 260.00002,260.00002 0 0 0 1.3164,0.32617 260.00002,260.00002 0 0 0 1.31641,0.31836 260.00002,260.00002 0 0 0 1.32031,0.3125 260.00002,260.00002 0 0 0 1.32031,0.30469 260.00002,260.00002 0 0 0 1.32422,0.29883 260.00002,260.00002 0 0 0 1.32422,0.29101 260.00002,260.00002 0 0 0 1.32422,0.28321 260.00002,260.00002 0 0 0 1.32812,0.27734 260.00002,260.00002 0 0 0 1.32813,0.27149 260.00002,260.00002 0 0 0 1.33008,0.26367 260.00002,260.00002 0 0 0 1.33203,0.25586 260.00002,260.00002 0 0 0 1.33203,0.25 260.00002,260.00002 0 0 0 1.33398,0.24218 260.00002,260.00002 0 0 0 0.42969,0.0762 h 90.85938 a 260.00002,260.00002 0 0 0 0.70508,-0.125 260.00002,260.00002 0 0 0 1.33398,-0.24415 260.00002,260.00002 0 0 0 1.33398,-0.25195 260.00002,260.00002 0 0 0 1.33008,-0.25781 260.00002,260.00002 0 0 0 1.33008,-0.26563 260.00002,260.00002 0 0 0 1.32812,-0.27148 260.00002,260.00002 0 0 0 1.32618,-0.2793 260.00002,260.00002 0 0 0 1.32617,-0.28515 260.00002,260.00002 0 0 0 1.32422,-0.29297 260.00002,260.00002 0 0 0 1.32226,-0.29883 260.00002,260.00002 0 0 0 1.32032,-0.30664 260.00002,260.00002 0 0 0 1.32031,-0.3125 260.00002,260.00002 0 0 0 1.3164,-0.32031 260.00002,260.00002 0 0 0 1.31641,-0.32813 260.00002,260.00002 0 0 0 1.31445,-0.33203 260.00002,260.00002 0 0 0 1.3125,-0.3418 260.00002,260.00002 0 0 0 1.31055,-0.34765 260.00002,260.00002 0 0 0 1.30859,-0.35352 260.00002,260.00002 0 0 0 1.30664,-0.36133 260.00002,260.00002 0 0 0 1.30469,-0.36914 260.00002,260.00002 0 0 0 1.30274,-0.375 260.00002,260.00002 0 0 0 1.30273,-0.38086 260.00002,260.00002 0 0 0 1.29883,-0.38867 260.00002,260.00002 0 0 0 1.29687,-0.39453 260.00002,260.00002 0 0 0 1.29493,-0.40234 260.00002,260.00002 0 0 0 1.29297,-0.40821 260.00002,260.00002 0 0 0 1.29101,-0.41601 260.00002,260.00002 0 0 0 1.28711,-0.42188 260.00002,260.00002 0 0 0 1.28711,-0.42968 260.00002,260.00002 0 0 0 1.2832,-0.43555 260.00002,260.00002 0 0 0 1.28321,-0.44141 260.00002,260.00002 0 0 0 1.27929,-0.44922 260.00002,260.00002 0 0 0 1.27735,-0.45507 260.00002,260.00002 0 0 0 1.27343,-0.4629 260.00002,260.00002 0 0 0 1.27344,-0.46874 260.00002,260.00002 0 0 0 1.26953,-0.47461 260.00002,260.00002 0 0 0 1.26758,-0.48243 260.00002,260.00002 0 0 0 1.26367,-0.48828 260.00002,260.00002 0 0 0 1.26172,-0.49609 260.00002,260.00002 0 0 0 1.25977,-0.50195 260.00002,260.00002 0 0 0 1.25781,-0.50782 260.00002,260.00002 0 0 0 1.25391,-0.51562 260.00002,260.00002 0 0 0 1.25195,-0.52149 260.00002,260.00002 0 0 0 1.24805,-0.52734 260.00002,260.00002 0 0 0 1.24609,-0.53516 260.00002,260.00002 0 0 0 1.24414,-0.54101 260.00002,260.00002 0 0 0 1.24023,-0.54688 260.00002,260.00002 0 0 0 1.23829,-0.55468 260.00002,260.00002 0 0 0 1.23437,-0.56055 260.00002,260.00002 0 0 0 1.23047,-0.56641 260.00002,260.00002 0 0 0 1.23047,-0.57422 260.00002,260.00002 0 0 0 1.22461,-0.57812 260.00002,260.00002 0 0 0 1.22265,-0.58594 260.00002,260.00002 0 0 0 1.22071,-0.59375 260.00002,260.00002 0 0 0 1.21484,-0.59765 260.00002,260.00002 0 0 0 1.21484,-0.60547 260.00002,260.00002 0 0 0 1.20899,-0.61133 260.00002,260.00002 0 0 0 1.20703,-0.61719 260.00002,260.00002 0 0 0 1.20508,-0.625 260.00002,260.00002 0 0 0 1.19922,-0.63086 260.00002,260.00002 0 0 0 1.19726,-0.63672 260.00002,260.00002 0 0 0 1.19531,-0.64258 260.00002,260.00002 0 0 0 1.18946,-0.64843 260.00002,260.00002 0 0 0 1.1875,-0.6543 260.00002,260.00002 0 0 0 1.18359,-0.66211 260.00002,260.00002 0 0 0 1.17969,-0.66797 260.00002,260.00002 0 0 0 1.17773,-0.67383 260.00002,260.00002 0 0 0 1.17188,-0.67968 260.00002,260.00002 0 0 0 1.16992,-0.68555 260.00002,260.00002 0 0 0 1.16602,-0.69141 260.00002,260.00002 0 0 0 1.16211,-0.69922 260.00002,260.00002 0 0 0 1.16015,-0.70312 260.00002,260.00002 0 0 0 1.1543,-0.71094 260.00002,260.00002 0 0 0 1.15039,-0.71679 260.00002,260.00002 0 0 0 1.14844,-0.72071 260.00002,260.00002 0 0 0 1.14453,-0.72851 260.00002,260.00002 0 0 0 1.13867,-0.73438 260.00002,260.00002 0 0 0 1.13672,-0.74023 260.00002,260.00002 0 0 0 1.13281,-0.7461 260.00002,260.00002 0 0 0 1.12695,-0.75195 260.00002,260.00002 0 0 0 1.125,-0.75781 260.00002,260.00002 0 0 0 1.1211,-0.76367 260.00002,260.00002 0 0 0 1.11523,-0.76954 260.00002,260.00002 0 0 0 1.11328,-0.77539 260.00002,260.00002 0 0 0 1.10743,-0.77929 260.00002,260.00002 0 0 0 1.10546,-0.78711 260.00002,260.00002 0 0 0 1.09961,-0.79297 260.00002,260.00002 0 0 0 1.09571,-0.79883 260.00002,260.00002 0 0 0 1.09179,-0.80273 260.00002,260.00002 0 0 0 1.08789,-0.81055 260.00002,260.00002 0 0 0 1.08399,-0.81445 260.00002,260.00002 0 0 0 1.07812,-0.82227 260.00002,260.00002 0 0 0 1.07618,-0.82617 260.00002,260.00002 0 0 0 1.07031,-0.83203 260.00002,260.00002 0 0 0 1.0664,-0.83789 260.00002,260.00002 0 0 0 1.06055,-0.84375 260.00002,260.00002 0 0 0 1.05859,-0.84766 260.00002,260.00002 0 0 0 1.05274,-0.85547 260.00002,260.00002 0 0 0 1.04883,-0.85937 260.00002,260.00002 0 0 0 1.04297,-0.86524 260.00002,260.00002 0 0 0 1.03906,-0.87109 260.00002,260.00002 0 0 0 1.03516,-0.875 260.00002,260.00002 0 0 0 1.03124,-0.88086 260.00002,260.00002 0 0 0 1.0254,-0.88867 260.00002,260.00002 0 0 0 1.02148,-0.89063 260.00002,260.00002 0 0 0 1.01562,-0.89844 260.00002,260.00002 0 0 0 1.01172,-0.90234 260.00002,260.00002 0 0 0 1.00586,-0.9082 260.00002,260.00002 0 0 0 1.00391,-0.91406 260.00002,260.00002 0 0 0 0.99609,-0.91797 260.00002,260.00002 0 0 0 0.99414,-0.92383 260.00002,260.00002 0 0 0 0.98633,-0.92774 260.00002,260.00002 0 0 0 0.98438,-0.93359 260.00002,260.00002 0 0 0 0.97656,-0.93945 260.00002,260.00002 0 0 0 0.97461,-0.94532 260.00002,260.00002 0 0 0 0.9668,-0.94921 260.00002,260.00002 0 0 0 0.96289,-0.95313 260.00002,260.00002 0 0 0 0.95898,-0.95898 260.00002,260.00002 0 0 0 0.95313,-0.96485 260.00002,260.00002 0 0 0 0.94921,-0.96875 260.00002,260.00002 0 0 0 0.94141,-0.97461 260.00002,260.00002 0 0 0 0.93945,-0.97851 260.00002,260.00002 0 0 0 0.93164,-0.98438 260.00002,260.00002 0 0 0 0.92774,-0.98828 260.00002,260.00002 0 0 0 0.92383,-0.99414 260.00002,260.00002 0 0 0 0.91797,-0.99805 260.00002,260.00002 0 0 0 0.91211,-1.0039 260.00002,260.00002 0 0 0 0.90624,-1.00781 260.00002,260.00002 0 0 0 0.90235,-1.01368 260.00002,260.00002 0 0 0 0.89648,-1.01562 260.00002,260.00002 0 0 0 0.89063,-1.02344 260.00002,260.00002 0 0 0 0.88476,-1.02539 260.00002,260.00002 0 0 0 0.88086,-1.03125 260.00002,260.00002 0 0 0 0.875,-1.03711 260.00002,260.00002 0 0 0 0.86914,-1.03906 260.00002,260.00002 0 0 0 0.86524,-1.04492 260.00002,260.00002 0 0 0 0.85742,-1.05078 260.00002,260.00002 0 0 0 0.85352,-1.05274 260.00002,260.00002 0 0 0 0.84765,-1.05859 260.00002,260.00002 0 0 0 0.8418,-1.0625 260.00002,260.00002 0 0 0 0.83789,-1.06641 260.00002,260.00002 0 0 0 0.83008,-1.07226 260.00002,260.00002 0 0 0 0.82617,-1.07618 260.00002,260.00002 0 0 0 0.81836,-1.08007 260.00002,260.00002 0 0 0 0.81445,-1.08399 260.00002,260.00002 0 0 0 0.8086,-1.08789 260.00002,260.00002 0 0 0 0.80273,-1.09375 260.00002,260.00002 0 0 0 0.79687,-1.0957 260.00002,260.00002 0 0 0 0.79102,-1.10157 260.00002,260.00002 0 0 0 0.78711,-1.10546 260.00002,260.00002 0 0 0 0.7793,-1.10938 260.00002,260.00002 0 0 0 0.77343,-1.11328 260.00002,260.00002 0 0 0 0.76954,-1.11719 260.00002,260.00002 0 0 0 0.76171,-1.12109 260.00002,260.00002 0 0 0 0.75586,-1.125 260.00002,260.00002 0 0 0 0.75196,-1.12891 260.00002,260.00002 0 0 0 0.74414,-1.13281 260.00002,260.00002 0 0 0 0.73828,-1.13672 260.00002,260.00002 0 0 0 0.73242,-1.14062 260.00002,260.00002 0 0 0 0.72852,-1.14454 260.00002,260.00002 0 0 0 0.7207,-1.14843 260.00002,260.00002 0 0 0 0.71484,-1.15235 260.00002,260.00002 0 0 0 0.70899,-1.15625 260.00002,260.00002 0 0 0 0.70312,-1.16015 260.00002,260.00002 0 0 0 0.69532,-1.16211 260.00002,260.00002 0 0 0 0.6914,-1.16797 260.00002,260.00002 0 0 0 0.68555,-1.16992 260.00002,260.00002 0 0 0 0.67773,-1.17383 260.00002,260.00002 0 0 0 0.67188,-1.17773 260.00002,260.00002 0 0 0 0.66601,-1.17969 260.00002,260.00002 0 0 0 0.66016,-1.18555 260.00002,260.00002 0 0 0 0.6543,-1.1875 260.00002,260.00002 0 0 0 0.64843,-1.19141 260.00002,260.00002 0 0 0 0.64063,-1.19335 260.00002,260.00002 0 0 0 0.63672,-1.19922 260.00002,260.00002 0 0 0 0.6289,-1.20118 260.00002,260.00002 0 0 0 0.6211,-1.20312 260.00002,260.00002 0 0 0 0.61719,-1.20898 260.00002,260.00002 0 0 0 0.60937,-1.21094 260.00002,260.00002 0 0 0 0.60547,-1.21289 260.00002,260.00002 0 0 0 0.5957,-1.2168 260.00002,260.00002 0 0 0 0.5918,-1.2207 260.00002,260.00002 0 0 0 0.58594,-1.22461 260.00002,260.00002 0 0 0 0.57812,-1.22461 260.00002,260.00002 0 0 0 0.57031,-1.23047 260.00002,260.00002 0 0 0 0.56641,-1.23242 260.00002,260.00002 0 0 0 0.55859,-1.23438 260.00002,260.00002 0 0 0 0.55274,-1.23828 260.00002,260.00002 0 0 0 0.54687,-1.24219 260.00002,260.00002 0 0 0 0.53907,-1.24414 260.00002,260.00002 0 0 0 0.5332,-1.24609 260.00002,260.00002 0 0 0 0.52734,-1.25 260.00002,260.00002 0 0 0 0.51953,-1.25195 260.00002,260.00002 0 0 0 0.51368,-1.25391 260.00002,260.00002 0 0 0 0.50781,-1.25781 260.00002,260.00002 0 0 0 0.5,-1.25977 260.00002,260.00002 0 0 0 0.49414,-1.26367 260.00002,260.00002 0 0 0 0.48828,-1.26367 260.00002,260.00002 0 0 0 0.48047,-1.26953 260.00002,260.00002 0 0 0 0.47266,-1.26953 260.00002,260.00002 0 0 0 0.46874,-1.27344 260.00002,260.00002 0 0 0 0.46094,-1.27539 260.00002,260.00002 0 0 0 0.45313,-1.27735 260.00002,260.00002 0 0 0 0.44726,-1.27929 260.00002,260.00002 0 0 0 0.44141,-1.28125 260.00002,260.00002 0 0 0 0.43359,-1.28516 260.00002,260.00002 0 0 0 0.42774,-1.28711 260.00002,260.00002 0 0 0 0.42187,-1.28906 260.00002,260.00002 0 0 0 0.41406,-1.29102 260.00002,260.00002 0 0 0 0.40626,-1.29297 260.00002,260.00002 0 0 0 0.40039,-1.29492 260.00002,260.00002 0 0 0 0.39453,-1.29883 260.00002,260.00002 0 0 0 0.38672,-1.29882 260.00002,260.00002 0 0 0 0.38086,-1.30079 260.00002,260.00002 0 0 0 0.37304,-1.30468 260.00002,260.00002 0 0 0 0.36719,-1.30469 260.00002,260.00002 0 0 0 0.35937,-1.30859 260.00002,260.00002 0 0 0 0.35352,-1.3086 260.00002,260.00002 0 0 0 0.3457,-1.31054 260.00002,260.00002 0 0 0 0.33789,-1.3125 260.00002,260.00002 0 0 0 0.33399,-1.31446 260.00002,260.00002 0 0 0 0.32422,-1.3164 260.00002,260.00002 0 0 0 0.32031,-1.31836 260.00002,260.00002 0 0 0 0.31055,-1.31836 260.00002,260.00002 0 0 0 0.30468,-1.32227 260.00002,260.00002 0 0 0 0.29883,-1.32226 260.00002,260.00002 0 0 0 0.29102,-1.32422 260.00002,260.00002 0 0 0 0.28515,-1.32617 260.00002,260.00002 0 0 0 0.27735,-1.32813 260.00002,260.00002 0 0 0 0.26953,-1.32812 260.00002,260.00002 0 0 0 0.26367,-1.33008 260.00002,260.00002 0 0 0 0.25586,-1.33008 260.00002,260.00002 0 0 0 0.25,-1.33399 260.00002,260.00002 0 0 0 0.24219,-1.33398 260.00002,260.00002 0 0 0 0.0762,-0.42969 V 590.89648 515.83008 305.25977 H 442.28125 351.42188 Z"
       transform="scale(0.26458333)" />
    <path
       id="rect1295"
       style="opacity:0.2;fill:url(#radialGradient1321);fill-opacity:1;stroke:none;stroke-width:27.7812;stroke-linecap:square;stroke-linejoin:miter;stroke-miterlimit:4;stroke-dasharray:none;stroke-opacity:1;paint-order:normal;stop-color:#000000"
       d="m 37.266459,80.766643 v 55.714437 19.86028 4.17701 a 68.791671,68.791671 0 0 0 0.03359,0.1881 68.791671,68.791671 0 0 0 0.0646,0.35295 68.791671,68.791671 0 0 0 0.06615,0.35244 68.791671,68.791671 0 0 0 0.06822,0.35243 68.791671,68.791671 0 0 0 0.07028,0.35192 68.791671,68.791671 0 0 0 0.07183,0.35139 68.791671,68.791671 0 0 0 0.0739,0.35089 68.791671,68.791671 0 0 0 0.07545,0.35088 68.791671,68.791671 0 0 0 0.07751,0.35036 68.791671,68.791671 0 0 0 0.07907,0.34986 68.791671,68.791671 0 0 0 0.08113,0.34933 68.791671,68.791671 0 0 0 0.0832,0.34881 68.791671,68.791671 0 0 0 0.08475,0.34882 68.791671,68.791671 0 0 0 0.0863,0.3483 68.791671,68.791671 0 0 0 0.08837,0.34778 68.791671,68.791671 0 0 0 0.08992,0.34727 68.791671,68.791671 0 0 0 0.09199,0.34675 68.791671,68.791671 0 0 0 0.09405,0.34623 68.791671,68.791671 0 0 0 0.0956,0.34571 68.791671,68.791671 0 0 0 0.09715,0.3452 68.791671,68.791671 0 0 0 0.09922,0.34468 68.791671,68.791671 0 0 0 0.100769,0.34417 68.791671,68.791671 0 0 0 0.102835,0.34365 68.791671,68.791671 0 0 0 0.104905,0.34365 68.791671,68.791671 0 0 0 0.105936,0.34261 68.791671,68.791671 0 0 0 0.108519,0.34158 68.791671,68.791671 0 0 0 0.109556,0.34158 68.791671,68.791671 0 0 0 0.11162,0.34107 68.791671,68.791671 0 0 0 0.113689,0.34055 68.791671,68.791671 0 0 0 0.115239,0.33951 68.791671,68.791671 0 0 0 0.116787,0.339 68.791671,68.791671 0 0 0 0.118856,0.33848 68.791671,68.791671 0 0 0 0.120407,0.33796 68.791671,68.791671 0 0 0 0.122473,0.33745 68.791671,68.791671 0 0 0 0.124023,0.33641 68.791671,68.791671 0 0 0 0.12609,0.3359 68.791671,68.791671 0 0 0 0.127125,0.33538 68.791671,68.791671 0 0 0 0.129709,0.33486 68.791671,68.791671 0 0 0 0.130741,0.33383 68.791671,68.791671 0 0 0 0.132808,0.33331 68.791671,68.791671 0 0 0 0.134874,0.3328 68.791671,68.791671 0 0 0 0.135911,0.33176 68.791671,68.791671 0 0 0 0.137975,0.33125 68.791671,68.791671 0 0 0 0.140044,0.33021 68.791671,68.791671 0 0 0 0.141076,0.3297 68.791671,68.791671 0 0 0 0.143144,0.32918 68.791671,68.791671 0 0 0 0.145209,0.32814 68.791671,68.791671 0 0 0 0.146246,0.32711 68.791671,68.791671 0 0 0 0.148312,0.3266 68.791671,68.791671 0 0 0 0.14986,0.32608 68.791671,68.791671 0 0 0 0.151929,0.32504 68.791671,68.791671 0 0 0 0.15348,0.32453 68.791671,68.791671 0 0 0 0.15503,0.32349 68.791671,68.791671 0 0 0 0.156577,0.32246 68.791671,68.791671 0 0 0 0.158647,0.32195 68.791671,68.791671 0 0 0 0.160197,0.32091 68.791671,68.791671 0 0 0 0.161748,0.32039 68.791671,68.791671 0 0 0 0.163298,0.31936 68.791671,68.791671 0 0 0 0.164846,0.31833 68.791671,68.791671 0 0 0 0.166915,0.31781 68.791671,68.791671 0 0 0 0.168466,0.31678 68.791671,68.791671 0 0 0 0.170016,0.31574 68.791671,68.791671 0 0 0 0.171566,0.31523 68.791671,68.791671 0 0 0 0.173633,0.31419 68.791671,68.791671 0 0 0 0.174665,0.31316 68.791671,68.791671 0 0 0 0.176733,0.31212 68.791671,68.791671 0 0 0 0.178285,0.3111 68.791671,68.791671 0 0 0 0.179834,0.31057 68.791671,68.791671 0 0 0 0.181385,0.30954 68.791671,68.791671 0 0 0 0.183452,0.30851 68.791671,68.791671 0 0 0 0.184483,0.30748 68.791671,68.791671 0 0 0 0.186553,0.30644 68.791671,68.791671 0 0 0 0.187584,0.30592 68.791671,68.791671 0 0 0 0.189653,0.30438 68.791671,68.791671 0 0 0 0.191204,0.30385 68.791671,68.791671 0 0 0 0.192752,0.30231 68.791671,68.791671 0 0 0 0.193786,0.30179 68.791671,68.791671 0 0 0 0.195855,0.30076 68.791671,68.791671 0 0 0 0.197403,0.2992 68.791671,68.791671 0 0 0 0.198956,0.29869 68.791671,68.791671 0 0 0 0.200504,0.29766 68.791671,68.791671 0 0 0 0.202054,0.29611 68.791671,68.791671 0 0 0 0.203605,0.29559 68.791671,68.791671 0 0 0 0.205155,0.29455 68.791671,68.791671 0 0 0 0.206706,0.29301 68.791671,68.791671 0 0 0 0.208256,0.29248 68.791671,68.791671 0 0 0 0.209291,0.29094 68.791671,68.791671 0 0 0 0.211354,0.28991 68.791671,68.791671 0 0 0 0.212908,0.28887 68.791671,68.791671 0 0 0 0.213942,0.28784 68.791671,68.791671 0 0 0 0.216006,0.2868 68.791671,68.791671 0 0 0 0.21704,0.28526 68.791671,68.791671 0 0 0 0.218594,0.28422 68.791671,68.791671 0 0 0 0.220141,0.28318 68.791671,68.791671 0 0 0 0.221692,0.28216 68.791671,68.791671 0 0 0 0.223242,0.28112 68.791671,68.791671 0 0 0 0.224793,0.27957 68.791671,68.791671 0 0 0 0.225824,0.27853 68.791671,68.791671 0 0 0 0.227378,0.2775 68.791671,68.791671 0 0 0 0.228925,0.27647 68.791671,68.791671 0 0 0 0.230479,0.27492 68.791671,68.791671 0 0 0 0.232026,0.27389 68.791671,68.791671 0 0 0 0.233061,0.27233 68.791671,68.791671 0 0 0 0.234611,0.2713 68.791671,68.791671 0 0 0 0.236162,0.27027 68.791671,68.791671 0 0 0 0.237194,0.26923 68.791671,68.791671 0 0 0 0.238744,0.26769 68.791671,68.791671 0 0 0 0.240297,0.26613 68.791671,68.791671 0 0 0 0.241845,0.2651 68.791671,68.791671 0 0 0 0.24288,0.26407 68.791671,68.791671 0 0 0 0.24443,0.26252 68.791671,68.791671 0 0 0 0.245977,0.26148 68.791671,68.791671 0 0 0 0.247015,0.25993 68.791671,68.791671 0 0 0 0.248563,0.2589 68.791671,68.791671 0 0 0 0.249598,0.25735 68.791671,68.791671 0 0 0 0.251147,0.25631 68.791671,68.791671 0 0 0 0.252699,0.25477 68.791671,68.791671 0 0 0 0.25373,0.25373 68.791671,68.791671 0 0 0 0.255283,0.25218 68.791671,68.791671 0 0 0 0.256312,0.25063 68.791671,68.791671 0 0 0 0.257866,0.2496 68.791671,68.791671 0 0 0 0.2589,0.24804 68.791671,68.791671 0 0 0 0.260448,0.24702 68.791671,68.791671 0 0 0 0.261485,0.24546 68.791671,68.791671 0 0 0 0.263033,0.24391 68.791671,68.791671 0 0 0 0.264065,0.24288 68.791671,68.791671 0 0 0 0.265102,0.24133 68.791671,68.791671 0 0 0 0.267165,0.2403 68.791671,68.791671 0 0 0 0.267684,0.23822 68.791671,68.791671 0 0 0 0.269235,0.2372 68.791671,68.791671 0 0 0 0.270267,0.23564 68.791671,68.791671 0 0 0 0.271819,0.23462 68.791671,68.791671 0 0 0 0.272852,0.23306 68.791671,68.791671 0 0 0 0.273883,0.23151 68.791671,68.791671 0 0 0 0.275437,0.22996 68.791671,68.791671 0 0 0 0.276468,0.22841 68.791671,68.791671 0 0 0 0.277503,0.22737 68.791671,68.791671 0 0 0 0.279054,0.22583 68.791671,68.791671 0 0 0 0.279569,0.22428 68.791671,68.791671 0 0 0 0.281636,0.22272 68.791671,68.791671 0 0 0 0.282154,0.22117 68.791671,68.791671 0 0 0 0.283186,0.22015 68.791671,68.791671 0 0 0 0.284737,0.21807 68.791671,68.791671 0 0 0 0.285771,0.21704 68.791671,68.791671 0 0 0 0.286803,0.21549 68.791671,68.791671 0 0 0 0.288356,0.21394 68.791671,68.791671 0 0 0 0.28887,0.21239 68.791671,68.791671 0 0 0 0.290422,0.21084 68.791671,68.791671 0 0 0 0.290939,0.20929 68.791671,68.791671 0 0 0 0.292489,0.20774 68.791671,68.791671 0 0 0 0.29352,0.20671 68.791671,68.791671 0 0 0 0.294558,0.20464 68.791671,68.791671 0 0 0 0.295588,0.20309 68.791671,68.791671 0 0 0 0.296624,0.20205 68.791671,68.791671 0 0 0 0.297656,0.19999 68.791671,68.791671 0 0 0 0.299207,0.19844 68.791671,68.791671 0 0 0 0.299723,0.1974 68.791671,68.791671 0 0 0 0.300757,0.19533 68.791671,68.791671 0 0 0 0.301789,0.19379 68.791671,68.791671 0 0 0 0.302823,0.19224 68.791671,68.791671 0 0 0 0.303858,0.19068 68.791671,68.791671 0 0 0 0.30489,0.18914 68.791671,68.791671 0 0 0 0.305409,0.18759 68.791671,68.791671 0 0 0 0.306959,0.18603 68.791671,68.791671 0 0 0 0.307991,0.18449 68.791671,68.791671 0 0 0 0.308509,0.18293 68.791671,68.791671 0 0 0 0.309542,0.18087 68.791671,68.791671 0 0 0 0.310575,0.17983 68.791671,68.791671 0 0 0 0.311608,0.17777 68.791671,68.791671 0 0 0 0.312642,0.17622 68.791671,68.791671 0 0 0 0.313159,0.17466 68.791671,68.791671 0 0 0 0.314192,0.17312 68.791671,68.791671 0 0 0 0.315227,0.17105 68.791671,68.791671 0 0 0 0.31626,0.17001 68.791671,68.791671 0 0 0 0.316777,0.16795 68.791671,68.791671 0 0 0 0.31781,0.1664 68.791671,68.791671 0 0 0 0.318844,0.16485 68.791671,68.791671 0 0 0 0.31936,0.16329 68.791671,68.791671 0 0 0 0.320394,0.16124 68.791671,68.791671 0 0 0 0.321427,0.15967 68.791671,68.791671 0 0 0 0.321945,0.15814 68.791671,68.791671 0 0 0 0.322977,0.15658 68.791671,68.791671 0 0 0 0.323495,0.15451 68.791671,68.791671 0 0 0 0.324528,0.15296 68.791671,68.791671 0 0 0 0.325045,0.15141 68.791671,68.791671 0 0 0 0.326078,0.14986 68.791671,68.791671 0 0 0 0.327113,0.1478 68.791671,68.791671 0 0 0 0.327628,0.14624 68.791671,68.791671 0 0 0 0.328144,0.1447 68.791671,68.791671 0 0 0 0.329179,0.14262 68.791671,68.791671 0 0 0 0.329697,0.14108 68.791671,68.791671 0 0 0 0.330729,0.13953 68.791671,68.791671 0 0 0 0.331245,0.13746 68.791671,68.791671 0 0 0 0.33228,0.1359 68.791671,68.791671 0 0 0 0.332279,0.13385 68.791671,68.791671 0 0 0 0.333831,0.1328 68.791671,68.791671 0 0 0 0.333827,0.13074 68.791671,68.791671 0 0 0 0.334865,0.12868 68.791671,68.791671 0 0 0 0.33538,0.12712 68.791671,68.791671 0 0 0 0.335897,0.12558 68.791671,68.791671 0 0 0 0.336931,0.12351 68.791671,68.791671 0 0 0 0.337446,0.12195 68.791671,68.791671 0 0 0 0.337963,0.12041 68.791671,68.791671 0 0 0 0.338482,0.11834 68.791671,68.791671 0 0 0 0.339513,0.11679 68.791671,68.791671 0 0 0 0.340032,0.11472 68.791671,68.791671 0 0 0 0.340029,0.11317 68.791671,68.791671 0 0 0 0.341067,0.1111 68.791671,68.791671 0 0 0 0.341579,0.10956 68.791671,68.791671 0 0 0 0.342615,0.108 68.791671,68.791671 0 0 0 0.342617,0.10594 68.791671,68.791671 0 0 0 0.34313,0.10438 68.791671,68.791671 0 0 0 0.344165,0.10232 68.791671,68.791671 0 0 0 0.344164,0.10026 68.791671,68.791671 0 0 0 0.344683,0.0992 68.791671,68.791671 0 0 0 0.345716,0.0966 68.791671,68.791671 0 0 0 0.345715,0.0951 68.791671,68.791671 0 0 0 0.346231,0.0935 68.791671,68.791671 0 0 0 0.34675,0.0915 68.791671,68.791671 0 0 0 0.347781,0.0899 68.791671,68.791671 0 0 0 0.347784,0.0879 68.791671,68.791671 0 0 0 0.348298,0.0863 68.791671,68.791671 0 0 0 0.3483,0.0842 68.791671,68.791671 0 0 0 0.349332,0.0827 68.791671,68.791671 0 0 0 0.349332,0.0806 68.791671,68.791671 0 0 0 0.350367,0.0791 68.791671,68.791671 0 0 0 0.350366,0.077 68.791671,68.791671 0 0 0 0.350367,0.0749 68.791671,68.791671 0 0 0 0.351398,0.0734 68.791671,68.791671 0 0 0 0.351401,0.0718 68.791671,68.791671 0 0 0 0.351917,0.0698 68.791671,68.791671 0 0 0 0.352433,0.0677 68.791671,68.791671 0 0 0 0.352433,0.0661 68.791671,68.791671 0 0 0 0.352949,0.0641 68.791671,68.791671 0 0 0 0.113689,0.0202 h 24.039876 a 68.791671,68.791671 0 0 0 0.18655,-0.0331 68.791671,68.791671 0 0 0 0.35295,-0.0646 68.791671,68.791671 0 0 0 0.35295,-0.0667 68.791671,68.791671 0 0 0 0.35192,-0.0682 68.791671,68.791671 0 0 0 0.35191,-0.0703 68.791671,68.791671 0 0 0 0.3514,-0.0718 68.791671,68.791671 0 0 0 0.35089,-0.0739 68.791671,68.791671 0 0 0 0.35088,-0.0754 68.791671,68.791671 0 0 0 0.35037,-0.0775 68.791671,68.791671 0 0 0 0.34984,-0.0791 68.791671,68.791671 0 0 0 0.34934,-0.0811 68.791671,68.791671 0 0 0 0.34933,-0.0827 68.791671,68.791671 0 0 0 0.3483,-0.0847 68.791671,68.791671 0 0 0 0.3483,-0.0868 68.791671,68.791671 0 0 0 0.34778,-0.0878 68.791671,68.791671 0 0 0 0.34727,-0.0904 68.791671,68.791671 0 0 0 0.34675,-0.092 68.791671,68.791671 0 0 0 0.34623,-0.0935 68.791671,68.791671 0 0 0 0.34571,-0.0956 68.791671,68.791671 0 0 0 0.3452,-0.0977 68.791671,68.791671 0 0 0 0.34468,-0.0992 68.791671,68.791671 0 0 0 0.34469,-0.10077 68.791671,68.791671 0 0 0 0.34364,-0.10283 68.791671,68.791671 0 0 0 0.34313,-0.10439 68.791671,68.791671 0 0 0 0.34262,-0.10645 68.791671,68.791671 0 0 0 0.3421,-0.10801 68.791671,68.791671 0 0 0 0.34158,-0.11006 68.791671,68.791671 0 0 0 0.34055,-0.11163 68.791671,68.791671 0 0 0 0.34054,-0.11368 68.791671,68.791671 0 0 0 0.33952,-0.11524 68.791671,68.791671 0 0 0 0.33951,-0.11679 68.791671,68.791671 0 0 0 0.33848,-0.11886 68.791671,68.791671 0 0 0 0.33797,-0.1204 68.791671,68.791671 0 0 0 0.33693,-0.12248 68.791671,68.791671 0 0 0 0.33693,-0.12402 68.791671,68.791671 0 0 0 0.33589,-0.12557 68.791671,68.791671 0 0 0 0.33538,-0.12765 68.791671,68.791671 0 0 0 0.33435,-0.12919 68.791671,68.791671 0 0 0 0.33383,-0.13125 68.791671,68.791671 0 0 0 0.33332,-0.13281 68.791671,68.791671 0 0 0 0.33279,-0.13436 68.791671,68.791671 0 0 0 0.33176,-0.13643 68.791671,68.791671 0 0 0 0.33125,-0.13797 68.791671,68.791671 0 0 0 0.33021,-0.13953 68.791671,68.791671 0 0 0 0.3297,-0.14159 68.791671,68.791671 0 0 0 0.32918,-0.14315 68.791671,68.791671 0 0 0 0.32814,-0.14469 68.791671,68.791671 0 0 0 0.32763,-0.14676 68.791671,68.791671 0 0 0 0.32659,-0.14831 68.791671,68.791671 0 0 0 0.32557,-0.14987 68.791671,68.791671 0 0 0 0.32556,-0.15192 68.791671,68.791671 0 0 0 0.32401,-0.15297 68.791671,68.791671 0 0 0 0.32349,-0.15503 68.791671,68.791671 0 0 0 0.32298,-0.15709 68.791671,68.791671 0 0 0 0.32143,-0.15813 68.791671,68.791671 0 0 0 0.32142,-0.1602 68.791671,68.791671 0 0 0 0.31988,-0.16174 68.791671,68.791671 0 0 0 0.31936,-0.1633 68.791671,68.791671 0 0 0 0.31885,-0.16537 68.791671,68.791671 0 0 0 0.31729,-0.16691 68.791671,68.791671 0 0 0 0.31678,-0.16847 68.791671,68.791671 0 0 0 0.31626,-0.17001 68.791671,68.791671 0 0 0 0.31471,-0.17157 68.791671,68.791671 0 0 0 0.31419,-0.17311 68.791671,68.791671 0 0 0 0.31316,-0.17519 68.791671,68.791671 0 0 0 0.31212,-0.17673 68.791671,68.791671 0 0 0 0.31161,-0.17829 68.791671,68.791671 0 0 0 0.31006,-0.17983 68.791671,68.791671 0 0 0 0.30954,-0.18138 68.791671,68.791671 0 0 0 0.30851,-0.18294 68.791671,68.791671 0 0 0 0.30748,-0.185 68.791671,68.791671 0 0 0 0.30695,-0.18603 68.791671,68.791671 0 0 0 0.30541,-0.18811 68.791671,68.791671 0 0 0 0.30438,-0.18965 68.791671,68.791671 0 0 0 0.30385,-0.19069 68.791671,68.791671 0 0 0 0.30283,-0.19275 68.791671,68.791671 0 0 0 0.30127,-0.1943 68.791671,68.791671 0 0 0 0.30076,-0.19585 68.791671,68.791671 0 0 0 0.29972,-0.19741 68.791671,68.791671 0 0 0 0.29817,-0.19895 68.791671,68.791671 0 0 0 0.29766,-0.20051 68.791671,68.791671 0 0 0 0.29662,-0.20205 68.791671,68.791671 0 0 0 0.29507,-0.20361 68.791671,68.791671 0 0 0 0.29456,-0.20515 68.791671,68.791671 0 0 0 0.29301,-0.20619 68.791671,68.791671 0 0 0 0.29248,-0.20826 68.791671,68.791671 0 0 0 0.29094,-0.2098 68.791671,68.791671 0 0 0 0.28991,-0.21136 68.791671,68.791671 0 0 0 0.28887,-0.21239 68.791671,68.791671 0 0 0 0.28784,-0.21446 68.791671,68.791671 0 0 0 0.2868,-0.21549 68.791671,68.791671 0 0 0 0.28525,-0.21756 68.791671,68.791671 0 0 0 0.28474,-0.21859 68.791671,68.791671 0 0 0 0.28319,-0.22014 68.791671,68.791671 0 0 0 0.28215,-0.22169 68.791671,68.791671 0 0 0 0.28061,-0.22324 68.791671,68.791671 0 0 0 0.28008,-0.22428 68.791671,68.791671 0 0 0 0.27854,-0.22634 68.791671,68.791671 0 0 0 0.2775,-0.22738 68.791671,68.791671 0 0 0 0.27595,-0.22893 68.791671,68.791671 0 0 0 0.27492,-0.23047 68.791671,68.791671 0 0 0 0.27389,-0.23151 68.791671,68.791671 0 0 0 0.27285,-0.23306 68.791671,68.791671 0 0 0 0.2713,-0.23513 68.791671,68.791671 0 0 0 0.27027,-0.23565 68.791671,68.791671 0 0 0 0.26871,-0.23771 68.791671,68.791671 0 0 0 0.26769,-0.23874 68.791671,68.791671 0 0 0 0.26613,-0.2403 68.791671,68.791671 0 0 0 0.26562,-0.24184 68.791671,68.791671 0 0 0 0.26355,-0.24288 68.791671,68.791671 0 0 0 0.26303,-0.24443 68.791671,68.791671 0 0 0 0.26097,-0.24547 68.791671,68.791671 0 0 0 0.26045,-0.24701 68.791671,68.791671 0 0 0 0.25838,-0.24856 68.791671,68.791671 0 0 0 0.25786,-0.25012 68.791671,68.791671 0 0 0 0.2558,-0.25114 68.791671,68.791671 0 0 0 0.25477,-0.25219 68.791671,68.791671 0 0 0 0.25373,-0.25373 68.791671,68.791671 0 0 0 0.25218,-0.25528 68.791671,68.791671 0 0 0 0.25115,-0.25631 68.791671,68.791671 0 0 0 0.24908,-0.25787 68.791671,68.791671 0 0 0 0.24856,-0.2589 68.791671,68.791671 0 0 0 0.2465,-0.26045 68.791671,68.791671 0 0 0 0.24546,-0.26148 68.791671,68.791671 0 0 0 0.24443,-0.26303 68.791671,68.791671 0 0 0 0.24288,-0.26407 68.791671,68.791671 0 0 0 0.24133,-0.26561 68.791671,68.791671 0 0 0 0.23978,-0.26665 68.791671,68.791671 0 0 0 0.23874,-0.26821 68.791671,68.791671 0 0 0 0.2372,-0.26871 68.791671,68.791671 0 0 0 0.23564,-0.27079 68.791671,68.791671 0 0 0 0.23409,-0.2713 68.791671,68.791671 0 0 0 0.23307,-0.27285 68.791671,68.791671 0 0 0 0.23151,-0.2744 68.791671,68.791671 0 0 0 0.22996,-0.27492 68.791671,68.791671 0 0 0 0.22892,-0.27647 68.791671,68.791671 0 0 0 0.22686,-0.27802 68.791671,68.791671 0 0 0 0.22583,-0.27854 68.791671,68.791671 0 0 0 0.22427,-0.28008 68.791671,68.791671 0 0 0 0.22273,-0.28112 68.791671,68.791671 0 0 0 0.22169,-0.28216 68.791671,68.791671 0 0 0 0.21963,-0.2837 68.791671,68.791671 0 0 0 0.21859,-0.28474 68.791671,68.791671 0 0 0 0.21652,-0.28577 68.791671,68.791671 0 0 0 0.21549,-0.2868 68.791671,68.791671 0 0 0 0.21394,-0.28784 68.791671,68.791671 0 0 0 0.21239,-0.28939 68.791671,68.791671 0 0 0 0.21084,-0.2899 68.791671,68.791671 0 0 0 0.20929,-0.29146 68.791671,68.791671 0 0 0 0.20826,-0.29248 68.791671,68.791671 0 0 0 0.20619,-0.29353 68.791671,68.791671 0 0 0 0.20464,-0.29455 68.791671,68.791671 0 0 0 0.2036,-0.29559 68.791671,68.791671 0 0 0 0.20154,-0.29662 68.791671,68.791671 0 0 0 0.19999,-0.29766 68.791671,68.791671 0 0 0 0.19895,-0.29869 68.791671,68.791671 0 0 0 0.19689,-0.29972 68.791671,68.791671 0 0 0 0.19534,-0.30076 68.791671,68.791671 0 0 0 0.19378,-0.30179 68.791671,68.791671 0 0 0 0.19276,-0.30283 68.791671,68.791671 0 0 0 0.19068,-0.30385 68.791671,68.791671 0 0 0 0.18914,-0.30489 68.791671,68.791671 0 0 0 0.18758,-0.30593 68.791671,68.791671 0 0 0 0.18604,-0.30696 68.791671,68.791671 0 0 0 0.18397,-0.30747 68.791671,68.791671 0 0 0 0.18293,-0.30903 68.791671,68.791671 0 0 0 0.18139,-0.30954 68.791671,68.791671 0 0 0 0.17931,-0.31057 68.791671,68.791671 0 0 0 0.17777,-0.31161 68.791671,68.791671 0 0 0 0.17622,-0.31213 68.791671,68.791671 0 0 0 0.17466,-0.31367 68.791671,68.791671 0 0 0 0.17312,-0.3142 68.791671,68.791671 0 0 0 0.17156,-0.31522 68.791671,68.791671 0 0 0 0.1695,-0.31574 68.791671,68.791671 0 0 0 0.16847,-0.3173 68.791671,68.791671 0 0 0 0.1664,-0.31781 68.791671,68.791671 0 0 0 0.16433,-0.31833 68.791671,68.791671 0 0 0 0.1633,-0.31987 68.791671,68.791671 0 0 0 0.16123,-0.3204 68.791671,68.791671 0 0 0 0.16019,-0.32091 68.791671,68.791671 0 0 0 0.15761,-0.32194 68.791671,68.791671 0 0 0 0.15659,-0.32298 68.791671,68.791671 0 0 0 0.15503,-0.32401 68.791671,68.791671 0 0 0 0.15296,-0.32401 68.791671,68.791671 0 0 0 0.15089,-0.32556 68.791671,68.791671 0 0 0 0.14986,-0.32608 68.791671,68.791671 0 0 0 0.1478,-0.3266 68.791671,68.791671 0 0 0 0.14624,-0.32763 68.791671,68.791671 0 0 0 0.1447,-0.32866 68.791671,68.791671 0 0 0 0.14262,-0.32918 68.791671,68.791671 0 0 0 0.14108,-0.32969 68.791671,68.791671 0 0 0 0.13953,-0.33073 68.791671,68.791671 0 0 0 0.13745,-0.33125 68.791671,68.791671 0 0 0 0.13592,-0.33176 68.791671,68.791671 0 0 0 0.13435,-0.33279 68.791671,68.791671 0 0 0 0.1323,-0.33332 68.791671,68.791671 0 0 0 0.13074,-0.33435 68.791671,68.791671 0 0 0 0.12919,-0.33434 68.791671,68.791671 0 0 0 0.12712,-0.3359 68.791671,68.791671 0 0 0 0.12506,-0.33589 68.791671,68.791671 0 0 0 0.12402,-0.33693 68.791671,68.791671 0 0 0 0.12196,-0.33745 68.791671,68.791671 0 0 0 0.11989,-0.33797 68.791671,68.791671 0 0 0 0.11834,-0.33848 68.791671,68.791671 0 0 0 0.11679,-0.33899 68.791671,68.791671 0 0 0 0.11472,-0.34004 68.791671,68.791671 0 0 0 0.11317,-0.34054 68.791671,68.791671 0 0 0 0.11162,-0.34107 68.791671,68.791671 0 0 0 0.10955,-0.34158 68.791671,68.791671 0 0 0 0.10749,-0.3421 68.791671,68.791671 0 0 0 0.10594,-0.34261 68.791671,68.791671 0 0 0 0.10438,-0.34365 68.791671,68.791671 0 0 0 0.10232,-0.34365 68.791671,68.791671 0 0 0 0.10077,-0.34416 68.791671,68.791671 0 0 0 0.0987,-0.3452 68.791671,68.791671 0 0 0 0.0972,-0.3452 68.791671,68.791671 0 0 0 0.0951,-0.34623 68.791671,68.791671 0 0 0 0.0935,-0.34623 68.791671,68.791671 0 0 0 0.0915,-0.34675 68.791671,68.791671 0 0 0 0.0894,-0.34727 68.791671,68.791671 0 0 0 0.0884,-0.34778 68.791671,68.791671 0 0 0 0.0858,-0.3483 68.791671,68.791671 0 0 0 0.0847,-0.34882 68.791671,68.791671 0 0 0 0.0822,-0.34881 68.791671,68.791671 0 0 0 0.0806,-0.34985 68.791671,68.791671 0 0 0 0.0791,-0.34985 68.791671,68.791671 0 0 0 0.077,-0.35037 68.791671,68.791671 0 0 0 0.0754,-0.35088 68.791671,68.791671 0 0 0 0.0734,-0.3514 68.791671,68.791671 0 0 0 0.0713,-0.3514 68.791671,68.791671 0 0 0 0.0698,-0.35192 68.791671,68.791671 0 0 0 0.0677,-0.35191 68.791671,68.791671 0 0 0 0.0661,-0.35295 68.791671,68.791671 0 0 0 0.0641,-0.35295 68.791671,68.791671 0 0 0 0.0202,-0.11369 V 156.34136 136.48004 80.766643 H 117.02025 92.980371 Z"
       inkscape:export-xdpi="47.999943"
       inkscape:export-ydpi="47.999943" />
    <path
       id="rect1126-9"
       style="display:inline;fill:url(#linearGradient1332);fill-opacity:1;stroke:none;stroke-width:20;stroke-linecap:round;stroke-linejoin:round;paint-order:stroke fill markers;stop-color:#000000"
       d="m 396.84961,357.04492 a 110,110 0 0 0 -110,110 110,110 0 0 0 39.42969,84.37696 L 289.80664,700.41992 H 503.89453 L 467.42188,551.42383 a 110,110 0 0 0 39.42773,-84.37891 110,110 0 0 0 -110,-110 z"
       transform="scale(0.26458333)" />
    <path
       id="path1165-9"
       style="color:#000000;font-style:normal;font-variant:normal;font-weight:normal;font-stretch:normal;font-size:medium;line-height:normal;font-family:sans-serif;font-variant-ligatures:normal;font-variant-position:normal;font-variant-caps:normal;font-variant-numeric:normal;font-variant-alternates:normal;font-variant-east-asian:normal;font-feature-settings:normal;font-variation-settings:normal;text-indent:0;text-align:start;text-decoration:none;text-decoration-line:none;text-decoration-style:solid;text-decoration-color:#000000;letter-spacing:normal;word-spacing:normal;text-transform:none;writing-mode:lr-tb;direction:ltr;text-orientation:mixed;dominant-baseline:auto;baseline-shift:baseline;text-anchor:start;white-space:normal;shape-padding:0;shape-margin:0;inline-size:0;clip-rule:nonzero;display:inline;overflow:visible;visibility:visible;isolation:auto;mix-blend-mode:normal;color-interpolation:sRGB;color-interpolation-filters:linearRGB;solid-color:#000000;solid-opacity:1;vector-effect:none;fill:#000000;fill-opacity:1;fill-rule:nonzero;stroke:none;stroke-width:27.7812;stroke-linecap:square;stroke-linejoin:miter;stroke-miterlimit:4;stroke-dasharray:none;stroke-dashoffset:0;stroke-opacity:1;paint-order:normal;color-rendering:auto;image-rendering:auto;shape-rendering:auto;text-rendering:auto;enable-background:accumulate;stop-color:#000000"
       d="m 105.00031,108.35915 c -8.566733,0 -15.214563,6.64628 -15.214563,15.21302 1e-5,4.51471 1.98975,8.77318 5.45289,11.66957 l 6.638873,5.55315 -7.498253,30.63481 h 21.242113 l -7.4998,-30.63481 6.63835,-5.55315 c 3.46312,-2.89651 5.45356,-7.15481 5.45342,-11.66957 0,-8.56674 -6.64629,-15.21302 -15.21303,-15.21302 z" />
  </g>
  <g
     inkscape:groupmode="layer"
     id="layer7"
     inkscape:label="Hide"
     sodipodi:insensitive="true">
    <g
       id="g1040"
       transform="translate(-8.8063789e-5,20.743287)"
       style="fill:#333333;fill-opacity:1">
      <path
         id="path1006"
         style="fill:#333333;fill-opacity:1;stroke-width:27.7812;stroke-linecap:square;stop-color:#000000"
         d="m -460.23984,162.59067 a 70.201428,54.113601 0 0 1 -70.02433,-54.1136 70.201428,54.113601 0 0 1 0.79068,-8.09762 70.201428,54.113601 0 0 0 69.41075,46.01427 70.201428,54.113601 0 0 0 69.41075,-46.01484 70.201428,54.113601 0 0 1 0.79068,8.09819 70.201428,54.113601 0 0 1 -70.20143,54.1136 70.201428,54.113601 0 0 1 -0.1771,0 z" />
      <path
         sodipodi:type="star"
         style="fill:#333333;fill-opacity:1;stroke-width:36.9635;stroke-linecap:square;stop-color:#000000"
         id="path1012"
         sodipodi:sides="3"
         sodipodi:cx="95.26342"
         sodipodi:cy="33.781353"
         sodipodi:r1="20.487835"
         sodipodi:r2="10.243917"
         sodipodi:arg1="0.52359878"
         sodipodi:arg2="1.5707963"
         inkscape:flatsided="true"
         inkscape:rounded="-7.97973e-17"
         inkscape:randomized="0"
         inkscape:transform-center-y="-5.2916673"
         transform="matrix(0.4945717,0,0,-1.1421644,-507.64892,209.54237)"
         d="M 113.00641,44.025271 77.520435,44.02527 95.26342,13.293518 Z" />
      <path
         sodipodi:type="star"
         style="fill:#333333;fill-opacity:1;stroke-width:36.9635;stroke-linecap:square;stop-color:#000000"
         id="path1014"
         sodipodi:sides="3"
         sodipodi:cx="95.26342"
         sodipodi:cy="33.781353"
         sodipodi:r1="20.487835"
         sodipodi:r2="10.243917"
         sodipodi:arg1="0.52359878"
         sodipodi:arg2="1.5707963"
         inkscape:flatsided="true"
         inkscape:rounded="-7.97973e-17"
         inkscape:randomized="0"
         inkscape:transform-center-y="-2.598344"
         transform="matrix(0.42831166,-0.24728585,-0.57108221,-0.98914339,-432.22188,211.73355)"
         inkscape:transform-center-x="0.79120679"
         d="M 113.00641,44.025271 77.520435,44.02527 95.26342,13.293518 Z" />
      <path
         sodipodi:type="star"
         style="fill:#333333;fill-opacity:1;stroke-width:36.9635;stroke-linecap:square;stop-color:#000000"
         id="path1016"
         sodipodi:sides="3"
         sodipodi:cx="95.26342"
         sodipodi:cy="33.781353"
         sodipodi:r1="20.487835"
         sodipodi:r2="10.243917"
         sodipodi:arg1="0.52359878"
         sodipodi:arg2="1.5707963"
         inkscape:flatsided="true"
         inkscape:rounded="-7.97973e-17"
         inkscape:randomized="0"
         inkscape:transform-center-y="-2.598344"
         transform="matrix(-0.42831166,-0.24728585,0.57108221,-0.98914339,-486.89908,211.73355)"
         inkscape:transform-center-x="-0.79120408"
         d="M 113.00641,44.025271 77.520435,44.02527 95.26342,13.293518 Z" />
    </g>
    <g
       id="g1090"
       transform="translate(-8.8063789e-5,-157.05674)"
       style="fill:#ffffff">
      <path
         id="path1082"
         style="fill:#ffffff;stroke-width:27.7812;stroke-linecap:square;stop-color:#000000"
         d="m -460.23984,162.59067 a 70.201428,54.113601 0 0 1 -70.02433,-54.1136 70.201428,54.113601 0 0 1 0.79068,-8.09762 70.201428,54.113601 0 0 0 69.41075,46.01427 70.201428,54.113601 0 0 0 69.41075,-46.01484 70.201428,54.113601 0 0 1 0.79068,8.09819 70.201428,54.113601 0 0 1 -70.20143,54.1136 70.201428,54.113601 0 0 1 -0.1771,0 z" />
      <path
         sodipodi:type="star"
         style="fill:#ffffff;stroke-width:36.9635;stroke-linecap:square;stop-color:#000000"
         id="path1084"
         sodipodi:sides="3"
         sodipodi:cx="95.26342"
         sodipodi:cy="33.781353"
         sodipodi:r1="20.487835"
         sodipodi:r2="10.243917"
         sodipodi:arg1="0.52359878"
         sodipodi:arg2="1.5707963"
         inkscape:flatsided="true"
         inkscape:rounded="-7.97973e-17"
         inkscape:randomized="0"
         inkscape:transform-center-y="-5.2916673"
         transform="matrix(0.4945717,0,0,-1.1421644,-507.64892,209.54237)"
         d="M 113.00641,44.025271 77.520435,44.02527 95.26342,13.293518 Z" />
      <path
         sodipodi:type="star"
         style="fill:#ffffff;stroke-width:36.9635;stroke-linecap:square;stop-color:#000000"
         id="path1086"
         sodipodi:sides="3"
         sodipodi:cx="95.26342"
         sodipodi:cy="33.781353"
         sodipodi:r1="20.487835"
         sodipodi:r2="10.243917"
         sodipodi:arg1="0.52359878"
         sodipodi:arg2="1.5707963"
         inkscape:flatsided="true"
         inkscape:rounded="-7.97973e-17"
         inkscape:randomized="0"
         inkscape:transform-center-y="-2.598344"
         transform="matrix(0.42831166,-0.24728585,-0.57108221,-0.98914339,-432.22188,211.73355)"
         inkscape:transform-center-x="0.79120679"
         d="M 113.00641,44.025271 77.520435,44.02527 95.26342,13.293518 Z" />
      <path
         sodipodi:type="star"
         style="fill:#ffffff;stroke-width:36.9635;stroke-linecap:square;stop-color:#000000"
         id="path1088"
         sodipodi:sides="3"
         sodipodi:cx="95.26342"
         sodipodi:cy="33.781353"
         sodipodi:r1="20.487835"
         sodipodi:r2="10.243917"
         sodipodi:arg1="0.52359878"
         sodipodi:arg2="1.5707963"
         inkscape:flatsided="true"
         inkscape:rounded="-7.97973e-17"
         inkscape:randomized="0"
         inkscape:transform-center-y="-2.598344"
         transform="matrix(-0.42831166,-0.24728585,0.57108221,-0.98914339,-486.89908,211.73355)"
         inkscape:transform-center-x="-0.79120408"
         d="M 113.00641,44.025271 77.520435,44.02527 95.26342,13.293518 Z" />
    </g>
  </g>
  <g
     inkscape:groupmode="layer"
     id="layer8"
     inkscape:label="Show"
     sodipodi:insensitive="true">
    <path
       id="path990"
       style="fill:#333333;fill-opacity:1;stroke-width:27.7812;stroke-linecap:square;stop-color:#000000"
       d="m -257.03976,132.1472 a 70.201428,54.113601 0 0 0 -70.02433,54.1136 70.201428,54.113601 0 0 0 0.79068,8.09762 70.201428,54.113601 0 0 1 69.41075,-46.01427 70.201428,54.113601 0 0 1 69.41075,46.01484 70.201428,54.113601 0 0 0 0.79068,-8.09819 70.201428,54.113601 0 0 0 -70.20143,-54.1136 70.201428,54.113601 0 0 0 -0.1771,0 z" />
    <circle
       style="fill:#333333;fill-opacity:1;stroke-width:27.7811;stroke-linecap:square;stop-color:#000000"
       id="circle992"
       cx="-257.91666"
       cy="185.82957"
       r="33.611805" />
    <circle
       style="fill:#f4e3d7;stroke-width:27.7811;stroke-linecap:square;stop-color:#000000"
       id="circle994"
       cx="-258.91254"
       cy="184.08673"
       r="13.195745" />
    <path
       sodipodi:type="star"
       style="fill:#333333;fill-opacity:1;stroke-width:36.9635;stroke-linecap:square;stop-color:#000000"
       id="path996"
       sodipodi:sides="3"
       sodipodi:cx="95.26342"
       sodipodi:cy="33.781353"
       sodipodi:r1="20.487835"
       sodipodi:r2="10.243917"
       sodipodi:arg1="0.52359878"
       sodipodi:arg2="1.5707963"
       inkscape:flatsided="true"
       inkscape:rounded="-7.97973e-17"
       inkscape:randomized="0"
       inkscape:transform-center-y="-5.2916673"
       transform="matrix(0.4945717,0,0,1.1421644,-304.44884,85.1955)"
       d="M 113.00641,44.025271 77.520435,44.02527 95.26342,13.293518 Z" />
    <path
       sodipodi:type="star"
       style="fill:#333333;fill-opacity:1;stroke-width:36.9635;stroke-linecap:square;stop-color:#000000"
       id="path998"
       sodipodi:sides="3"
       sodipodi:cx="95.26342"
       sodipodi:cy="33.781353"
       sodipodi:r1="20.487835"
       sodipodi:r2="10.243917"
       sodipodi:arg1="0.52359878"
       sodipodi:arg2="1.5707963"
       inkscape:flatsided="true"
       inkscape:rounded="-7.97973e-17"
       inkscape:randomized="0"
       inkscape:transform-center-y="-2.598344"
       transform="matrix(0.42831166,0.24728585,-0.57108221,0.98914339,-229.0218,83.004322)"
       inkscape:transform-center-x="0.79120679"
       d="M 113.00641,44.025271 77.520435,44.02527 95.26342,13.293518 Z" />
    <path
       sodipodi:type="star"
       style="fill:#333333;fill-opacity:1;stroke-width:36.9635;stroke-linecap:square;stop-color:#000000"
       id="path1000"
       sodipodi:sides="3"
       sodipodi:cx="95.26342"
       sodipodi:cy="33.781353"
       sodipodi:r1="20.487835"
       sodipodi:r2="10.243917"
       sodipodi:arg1="0.52359878"
       sodipodi:arg2="1.5707963"
       inkscape:flatsided="true"
       inkscape:rounded="-7.97973e-17"
       inkscape:randomized="0"
       inkscape:transform-center-y="-2.598344"
       transform="matrix(-0.42831166,0.24728585,0.57108221,0.98914339,-283.699,83.004322)"
       inkscape:transform-center-x="-0.79120408"
       d="M 113.00641,44.025271 77.520435,44.02527 95.26342,13.293518 Z" />
    <path
       id="path1092"
       style="fill:#ffffff;stroke-width:27.7812;stroke-linecap:square;stop-color:#000000"
       d="m -257.03976,-45.652836 a 70.201428,54.113601 0 0 0 -70.02433,54.1136006 70.201428,54.113601 0 0 0 0.79068,8.0976174 70.201428,54.113601 0 0 1 69.41075,-46.014272 70.201428,54.113601 0 0 1 69.41075,46.014843 70.201428,54.113601 0 0 0 0.79068,-8.0981884 70.201428,54.113601 0 0 0 -70.20143,-54.1136006 70.201428,54.113601 0 0 0 -0.1771,0 z" />
    <circle
       style="fill:#ffffff;stroke-width:27.7811;stroke-linecap:square;stop-color:#000000"
       id="circle1094"
       cx="-257.91666"
       cy="8.0295391"
       r="33.611805" />
    <circle
       style="fill:#333333;fill-opacity:1;stroke-width:27.7811;stroke-linecap:square;stop-color:#000000"
       id="circle1096"
       cx="-258.91254"
       cy="6.2866902"
       r="13.195745" />
    <path
       sodipodi:type="star"
       style="fill:#ffffff;stroke-width:36.9635;stroke-linecap:square;stop-color:#000000"
       id="path1098"
       sodipodi:sides="3"
       sodipodi:cx="95.26342"
       sodipodi:cy="33.781353"
       sodipodi:r1="20.487835"
       sodipodi:r2="10.243917"
       sodipodi:arg1="0.52359878"
       sodipodi:arg2="1.5707963"
       inkscape:flatsided="true"
       inkscape:rounded="-7.97973e-17"
       inkscape:randomized="0"
       inkscape:transform-center-y="-5.2916673"
       transform="matrix(0.4945717,0,0,1.1421644,-304.44884,-92.604537)"
       d="M 113.00641,44.025271 77.520435,44.02527 95.26342,13.293518 Z" />
    <path
       sodipodi:type="star"
       style="fill:#ffffff;stroke-width:36.9635;stroke-linecap:square;stop-color:#000000"
       id="path1100"
       sodipodi:sides="3"
       sodipodi:cx="95.26342"
       sodipodi:cy="33.781353"
       sodipodi:r1="20.487835"
       sodipodi:r2="10.243917"
       sodipodi:arg1="0.52359878"
       sodipodi:arg2="1.5707963"
       inkscape:flatsided="true"
       inkscape:rounded="-7.97973e-17"
       inkscape:randomized="0"
       inkscape:transform-center-y="-2.598344"
       transform="matrix(0.42831166,0.24728585,-0.57108221,0.98914339,-229.0218,-94.795715)"
       inkscape:transform-center-x="0.79120679"
       d="M 113.00641,44.025271 77.520435,44.02527 95.26342,13.293518 Z" />
    <path
       sodipodi:type="star"
       style="fill:#ffffff;stroke-width:36.9635;stroke-linecap:square;stop-color:#000000"
       id="path1102"
       sodipodi:sides="3"
       sodipodi:cx="95.26342"
       sodipodi:cy="33.781353"
       sodipodi:r1="20.487835"
       sodipodi:r2="10.243917"
       sodipodi:arg1="0.52359878"
       sodipodi:arg2="1.5707963"
       inkscape:flatsided="true"
       inkscape:rounded="-7.97973e-17"
       inkscape:randomized="0"
       inkscape:transform-center-y="-2.598344"
       transform="matrix(-0.42831166,0.24728585,0.57108221,0.98914339,-283.699,-94.795715)"
       inkscape:transform-center-x="-0.79120408"
       d="M 113.00641,44.025271 77.520435,44.02527 95.26342,13.293518 Z" />
  </g>
</svg>
